<svg width="134" height="50" viewBox="0 0 134 50" fill="none" xmlns="http://www.w3.org/2000/svg">
<path d="M109.046 0H30.5487L27.1842 15.6236H105.844L109.046 0Z" fill="#F3F3F3"/>
<path d="M33.8152 12.4125C33.7159 12.867 33.4512 13.0917 33.0161 13.0894C32.5825 13.0894 32.414 12.8601 32.5138 12.408L34.3184 4.06727C34.3686 3.83132 34.464 3.64996 34.5968 3.52124C34.7351 3.39468 34.9013 3.32935 35.0973 3.32935L38.0589 3.34289C39.3803 3.34676 40.2976 3.53027 40.8113 3.90567C41.3251 4.27657 41.493 4.87287 41.3167 5.68921C41.1365 6.52748 40.7387 7.16117 40.1283 7.59223C39.5184 8.02716 38.7245 8.2386 37.7408 8.23709L34.7189 8.22807L33.8152 12.4125ZM37.2661 6.99442C38.3094 6.99657 38.9992 6.91363 39.3337 6.74924C39.668 6.60161 39.8855 6.28014 39.9939 5.78977C40.0647 5.4509 40.0533 5.20186 39.9542 5.0351C39.8573 4.866 39.6452 4.74866 39.3154 4.68312C38.9902 4.6178 38.4787 4.58493 37.7888 4.58255L35.5096 4.57354L34.9891 6.98539L37.2661 6.99442Z" fill="#131718"/>
<path d="M33.8152 12.4125C33.7159 12.867 33.4512 13.0917 33.0161 13.0894C32.5825 13.0894 32.414 12.8601 32.5138 12.408L34.3184 4.06727C34.3686 3.83132 34.464 3.64996 34.5968 3.52124C34.7351 3.39468 34.9013 3.32935 35.0973 3.32935L38.0589 3.34289C39.3803 3.34676 40.2976 3.53027 40.8113 3.90567C41.3251 4.27657 41.493 4.87287 41.3167 5.68921C41.1365 6.52748 40.7387 7.16117 40.1283 7.59223C39.5184 8.02716 38.7245 8.2386 37.7408 8.23709L34.7189 8.22807L33.8152 12.4125ZM37.2661 6.99442C38.3094 6.99657 38.9992 6.91363 39.3337 6.74924C39.668 6.60161 39.8855 6.28014 39.9939 5.78977C40.0647 5.4509 40.0533 5.20186 39.9542 5.0351C39.8573 4.866 39.6452 4.74866 39.3154 4.68312C38.9902 4.6178 38.4787 4.58493 37.7888 4.58255L35.5096 4.57354L34.9891 6.98539L37.2661 6.99442Z" fill="#131718"/>
<path d="M33.027 13.2038H33.0162C32.7712 13.2038 32.5913 13.1316 32.4834 13.0005C32.3682 12.8596 32.3406 12.6487 32.3989 12.3814L34.2047 4.04218C34.2612 3.78496 34.368 3.57911 34.5198 3.436C34.6794 3.28751 34.8655 3.20607 35.0983 3.21531L38.0592 3.22433C39.4185 3.22584 40.3429 3.4201 40.8794 3.80925C41.4321 4.20829 41.6176 4.84951 41.4306 5.71226C41.2428 6.57417 40.8291 7.23815 40.1971 7.68769C39.5688 8.13078 38.7394 8.36221 37.7418 8.35168L34.8145 8.34245L33.9284 12.4332C33.8199 12.9359 33.5071 13.2023 33.027 13.2038ZM35.0899 3.44502C34.9284 3.44695 34.7932 3.49938 34.6794 3.60597C34.5619 3.71771 34.4793 3.8808 34.4322 4.09246L32.6277 12.4287C32.5829 12.6272 32.5949 12.7697 32.6622 12.8574C32.727 12.9336 32.8453 12.9723 33.0171 12.9723C33.3957 12.9861 33.6146 12.7888 33.7001 12.3875L34.6282 8.10929L37.7418 8.12004C38.698 8.12004 39.4743 7.91525 40.0634 7.49795C40.6453 7.08752 41.03 6.46693 41.2038 5.66412C41.3703 4.88689 41.2194 4.34151 40.7437 3.99878C40.2527 3.64035 39.3483 3.45963 38.0592 3.45512L35.0983 3.44502H35.0899ZM37.4288 7.1073H37.2662L34.8475 7.09805L35.4176 4.45733L37.7891 4.46637C38.4859 4.46787 39.0071 4.50311 39.3414 4.56844C39.7033 4.64321 39.9384 4.77622 40.0544 4.97435C40.1689 5.17075 40.1857 5.44408 40.1063 5.8111C39.9918 6.338 39.7491 6.68998 39.3819 6.85136C39.05 7.02048 38.4103 7.10256 37.4288 7.1073ZM35.1352 6.86963L37.2662 6.87586C38.2897 6.87822 38.9642 6.80194 39.2828 6.64507C39.5865 6.50884 39.7804 6.22325 39.8788 5.76404C39.9468 5.45719 39.9361 5.23393 39.8544 5.09318C39.7756 4.95222 39.5865 4.85401 39.294 4.79534C38.975 4.73217 38.4698 4.69951 37.7891 4.69951L35.6039 4.69114L35.1352 6.86963Z" fill="#F8FBFF"/>
<path d="M49.816 9.54921C49.6571 10.2803 49.3573 10.9177 48.9123 11.4612C48.4695 12.0079 47.9131 12.4284 47.2431 12.7201C46.5767 13.0158 45.8385 13.1619 45.0333 13.1588C44.226 13.1547 43.5557 13.0041 43.0129 12.7071C42.4757 12.4111 42.0993 11.9869 41.894 11.4391C41.687 10.8918 41.6627 10.2545 41.8178 9.52256L42.384 6.92121C42.5419 6.18952 42.8421 5.55433 43.2871 5.00831C43.7289 4.46014 44.2878 4.04196 44.9554 3.7465C45.6219 3.45425 46.3607 3.31029 47.1659 3.31265C47.9697 3.31265 48.6443 3.46479 49.1848 3.76176C49.723 4.05873 50.1001 4.48506 50.3037 5.03043C50.5122 5.57796 50.5374 6.21853 50.3786 6.94721L49.816 9.54921ZM46.8974 4.55447C46.0171 4.55232 45.3044 4.75475 44.7571 5.1699C44.2068 5.58097 43.8449 6.18114 43.6748 6.96827L43.1299 9.4837C42.9619 10.271 43.0594 10.8759 43.4297 11.2885C43.7993 11.7035 44.4259 11.9128 45.3021 11.9166C46.1773 11.9196 46.8917 11.7142 47.4438 11.3016C47.9923 10.8895 48.3536 10.2872 48.5246 9.50135L49.0671 6.9861C49.2312 6.22907 49.1399 5.62438 48.7917 5.17892C48.4168 4.76613 47.7841 4.55598 46.8974 4.55447Z" fill="#131718"/>
<path d="M49.816 9.54921C49.6571 10.2803 49.3573 10.9177 48.9123 11.4612C48.4695 12.0079 47.9131 12.4284 47.2431 12.7201C46.5767 13.0158 45.8385 13.1619 45.0333 13.1588C44.226 13.1547 43.5557 13.0041 43.0129 12.7071C42.4757 12.4111 42.0993 11.9869 41.894 11.4391C41.687 10.8918 41.6627 10.2545 41.8178 9.52256L42.384 6.92121C42.5419 6.18952 42.8421 5.55433 43.2871 5.00831C43.7289 4.46014 44.2878 4.04196 44.9554 3.7465C45.6219 3.45425 46.3607 3.31029 47.1659 3.31265C47.9697 3.31265 48.6443 3.46479 49.1848 3.76176C49.723 4.05873 50.1001 4.48506 50.3037 5.03043C50.5122 5.57796 50.5374 6.21853 50.3786 6.94721L49.816 9.54921ZM46.8974 4.55447C46.0171 4.55232 45.3044 4.75475 44.7571 5.1699C44.2068 5.58097 43.8449 6.18114 43.6748 6.96827L43.1299 9.4837C42.9619 10.271 43.0594 10.8759 43.4297 11.2885C43.7993 11.7035 44.4259 11.9128 45.3021 11.9166C46.1773 11.9196 46.8917 11.7142 47.4438 11.3016C47.9923 10.8895 48.3536 10.2872 48.5246 9.50135L49.0671 6.9861C49.2312 6.22907 49.1399 5.62438 48.7917 5.17892C48.4168 4.76613 47.7841 4.55598 46.8974 4.55447Z" fill="#131718"/>
<path d="M45.0895 13.274H45.0338C44.2116 13.2695 43.5127 13.1148 42.9586 12.8071C42.3959 12.4989 42.0022 12.0524 41.7869 11.4805C41.5717 10.9118 41.5448 10.2461 41.7082 9.49847L42.2717 6.89561C42.431 6.15318 42.7432 5.49198 43.1974 4.93564C43.6484 4.37652 44.2257 3.94245 44.908 3.64097C45.5888 3.3425 46.3627 3.18929 47.1662 3.19401C47.986 3.19852 48.6845 3.3554 49.2395 3.6586C49.8019 3.96825 50.1973 4.41542 50.4125 4.98959C50.6285 5.55538 50.6543 6.22108 50.4934 6.97038L49.9279 9.57217C49.7676 10.3164 49.4577 10.9758 49.0036 11.5346C48.5495 12.0906 47.9724 12.5283 47.2916 12.8294C46.6245 13.1195 45.8856 13.2695 45.0895 13.274ZM47.1098 3.42695C46.3467 3.42931 45.6353 3.57393 45.0019 3.85114C44.3544 4.13671 43.8088 4.551 43.3762 5.07941C42.9477 5.60801 42.651 6.23613 42.4974 6.94589L41.9333 9.54579C41.7823 10.2508 41.8045 10.8753 42.0022 11.397C42.2006 11.9194 42.5571 12.3221 43.0706 12.6061C43.592 12.8924 44.2521 13.0403 45.0338 13.0403C45.8222 13.0493 46.5481 12.9008 47.1977 12.6152C47.8449 12.3311 48.3937 11.9194 48.8234 11.3899C49.254 10.8601 49.5507 10.2317 49.7011 9.52342L50.2652 6.92161C50.4179 6.21722 50.3965 5.59427 50.1967 5.07124C50.0004 4.55101 49.6401 4.14573 49.1294 3.86165C48.6065 3.57543 47.9481 3.42931 47.1662 3.42695H47.1098ZM45.3491 12.032H45.3026C44.3919 12.0305 43.7339 11.8051 43.3432 11.3642C42.9486 10.921 42.8394 10.2789 43.0189 9.45809L43.5623 6.94352C43.7363 6.13191 44.1156 5.50295 44.6857 5.07275C45.2423 4.65609 45.9726 4.4397 46.8513 4.43733H46.8979C47.8167 4.4397 48.4831 4.66211 48.8792 5.10369C49.2531 5.57966 49.3524 6.21873 49.1828 7.01122L48.6379 9.52342C48.4609 10.3391 48.0829 10.9674 47.5128 11.3945C46.9565 11.8134 46.2274 12.0274 45.3491 12.032ZM46.8529 4.66662C46.0237 4.67113 45.3437 4.8699 44.8246 5.25926C44.3019 5.65358 43.9538 6.23463 43.7888 6.99382L43.2448 9.50684C43.0837 10.2529 43.1737 10.8273 43.5172 11.212C43.8622 11.5979 44.4653 11.7967 45.3026 11.8005C46.1421 11.8051 46.8472 11.6048 47.3723 11.2088C47.8986 10.8158 48.2457 10.2317 48.4112 9.47547L48.9548 6.96179C49.1105 6.24064 49.0256 5.66432 48.7004 5.25217C48.3562 4.8699 47.7472 4.67113 46.8979 4.66662H46.8529Z" fill="#F8FBFF"/>
<path d="M54.979 13.0562C53.9648 13.054 53.1928 12.9627 52.6572 12.784C52.1228 12.6041 51.7696 12.3116 51.5986 11.9057C51.4299 11.5037 51.4214 10.9454 51.5743 10.2335L52.4322 6.27381C52.5847 5.57157 52.8252 5.02104 53.1556 4.61963C53.4853 4.21307 53.9424 3.92298 54.5218 3.74183C55.105 3.56283 55.8552 3.47129 56.7743 3.47515L59.2395 3.48417C59.8471 3.48654 60.2678 3.63503 60.4967 3.93221C60.7263 4.22833 60.7761 4.68753 60.641 5.30747C60.5225 5.8593 60.2447 6.13435 59.8126 6.13198C59.6044 6.13198 59.4618 6.06408 59.3763 5.9272C59.2905 5.7871 59.2762 5.59305 59.3311 5.3483C59.3838 5.10161 59.3769 4.93572 59.316 4.85041C59.2479 4.76747 59.0967 4.72472 58.8602 4.72472L56.5041 4.71719C55.7919 4.71569 55.2638 4.75307 54.9142 4.83151C54.5653 4.90973 54.3074 5.0582 54.1356 5.28061C53.9624 5.50151 53.8274 5.84125 53.7266 6.30647L52.8823 10.2101C52.7793 10.6837 52.7679 11.0277 52.8526 11.2463C52.9335 11.4648 53.1519 11.6111 53.5091 11.6919C53.8625 11.7717 54.4395 11.8135 55.2485 11.8135L57.3222 11.8226C57.5619 11.8226 57.7299 11.7808 57.8329 11.6986C57.9321 11.6148 58.0099 11.4497 58.0627 11.2029C58.1155 10.9562 58.2139 10.7643 58.3582 10.6263C58.5023 10.4892 58.6754 10.4215 58.8833 10.4215C59.3166 10.4323 59.4693 10.714 59.3511 11.2662C59.2191 11.8754 58.9718 12.3314 58.616 12.6268C58.2559 12.9185 57.7717 13.0671 57.1643 13.0627L54.979 13.0562Z" fill="#131718"/>
<path d="M54.979 13.0562C53.9648 13.054 53.1928 12.9627 52.6572 12.784C52.1228 12.6041 51.7696 12.3116 51.5986 11.9057C51.4299 11.5037 51.4214 10.9454 51.5743 10.2335L52.4322 6.27381C52.5847 5.57157 52.8252 5.02104 53.1556 4.61963C53.4853 4.21307 53.9424 3.92298 54.5218 3.74183C55.105 3.56283 55.8552 3.47129 56.7743 3.47515L59.2395 3.48417C59.8471 3.48654 60.2678 3.63503 60.4967 3.93221C60.7263 4.22833 60.7761 4.68753 60.641 5.30747C60.5225 5.8593 60.2447 6.13435 59.8126 6.13198C59.6044 6.13198 59.4618 6.06408 59.3763 5.9272C59.2905 5.7871 59.2762 5.59305 59.3311 5.3483C59.3838 5.10161 59.3769 4.93572 59.316 4.85041C59.2479 4.76747 59.0967 4.72472 58.8602 4.72472L56.5041 4.71719C55.7919 4.71569 55.2638 4.75307 54.9142 4.83151C54.5653 4.90973 54.3074 5.0582 54.1356 5.28061C53.9624 5.50151 53.8274 5.84125 53.7266 6.30647L52.8823 10.2101C52.7793 10.6837 52.7679 11.0277 52.8526 11.2463C52.9335 11.4648 53.1519 11.6111 53.5091 11.6919C53.8625 11.7717 54.4395 11.8135 55.2485 11.8135L57.3222 11.8226C57.5619 11.8226 57.7299 11.7808 57.8329 11.6986C57.9321 11.6148 58.0099 11.4497 58.0627 11.2029C58.1155 10.9562 58.2139 10.7643 58.3582 10.6263C58.5023 10.4892 58.6754 10.4215 58.8833 10.4215C59.3166 10.4323 59.4693 10.714 59.3511 11.2662C59.2191 11.8754 58.9718 12.3314 58.616 12.6268C58.2559 12.9185 57.7717 13.0671 57.1643 13.0627L54.979 13.0562Z" fill="#131718"/>
<path d="M57.1931 13.1802H57.1634L54.9758 13.1733C53.9577 13.1689 53.1653 13.0728 52.6179 12.8923C52.0556 12.7051 51.6748 12.3873 51.4924 11.9519C51.3121 11.5254 51.3015 10.9407 51.4601 10.2097L52.3158 6.24741C52.473 5.53377 52.7241 4.95981 53.0638 4.5425C53.4089 4.1252 53.8866 3.81749 54.4881 3.63011C55.0781 3.44681 55.8384 3.35313 56.7757 3.35764L59.2386 3.36752C59.8806 3.36752 60.3369 3.53642 60.5897 3.86153C60.8415 4.183 60.8957 4.68025 60.7553 5.32984C60.5912 6.09204 60.1424 6.24976 59.8111 6.24976C59.5614 6.24976 59.383 6.15758 59.2761 5.98546C59.1783 5.82172 59.1594 5.59866 59.2158 5.32146C59.2815 5.02986 59.2356 4.9422 59.2203 4.92265C59.2074 4.90266 59.1357 4.84184 58.86 4.83948L56.5039 4.83259C55.8039 4.82808 55.2794 4.86828 54.9392 4.94456C54.6223 5.01375 54.3811 5.1517 54.2271 5.35047C54.0653 5.55526 53.9363 5.88725 53.8409 6.33056L52.9951 10.2315C52.8997 10.6809 52.8867 11.0099 52.9594 11.2024C53.0264 11.3814 53.221 11.5065 53.5325 11.5802C53.8782 11.6565 54.456 11.6984 55.2475 11.6984L57.3243 11.7052C57.5375 11.7089 57.6801 11.6723 57.7564 11.6092C57.8121 11.5628 57.8898 11.4509 57.9472 11.179C58.0075 10.9101 58.1182 10.6985 58.2769 10.5431C58.4402 10.3854 58.6402 10.3078 58.8739 10.3057H58.883C59.1081 10.3117 59.2746 10.3794 59.3805 10.5172C59.5143 10.6856 59.5419 10.9392 59.4645 11.2925C59.3256 11.9253 59.0663 12.4051 58.69 12.7157C58.3174 13.0212 57.8127 13.1764 57.1931 13.1802ZM56.6557 3.59079C55.8048 3.59745 55.1001 3.6819 54.556 3.85102C53.9995 4.0255 53.5583 4.30957 53.2447 4.69185C52.9264 5.07714 52.6929 5.61607 52.5448 6.29768L51.6892 10.2569C51.5381 10.9428 51.5473 11.482 51.7058 11.8619C51.8632 12.2328 52.1954 12.5055 52.6951 12.6714C53.2165 12.8474 53.9844 12.938 54.9787 12.9411L57.1634 12.9485C57.7458 12.938 58.2052 12.8093 58.5412 12.5358C58.8785 12.2588 59.1113 11.8223 59.2386 11.2398C59.2966 10.9649 59.2851 10.7683 59.1966 10.6611C59.1333 10.5804 59.0319 10.541 58.88 10.537H58.8739C58.7005 10.537 58.5587 10.5958 58.4402 10.7114C58.312 10.8317 58.2235 11.006 58.1755 11.2269C58.1167 11.5019 58.0266 11.6846 57.9037 11.7852C57.7839 11.8879 57.5976 11.9358 57.3357 11.9358H57.3243L55.2475 11.9313C54.4386 11.9291 53.843 11.8864 53.482 11.805C53.089 11.7157 52.8372 11.5394 52.7425 11.2878C52.6515 11.0426 52.6608 10.6856 52.7676 10.1852L53.6141 6.28178C53.7188 5.79594 53.8598 5.44394 54.0453 5.20822C54.2316 4.96583 54.5155 4.79995 54.8881 4.71678C55.2428 4.63599 55.7894 4.59881 56.5063 4.60117L58.86 4.60805C59.1363 4.60805 59.3151 4.66499 59.406 4.78318C59.4952 4.89578 59.5059 5.08402 59.4424 5.37175C59.3975 5.58792 59.4082 5.75403 59.476 5.86598C59.5355 5.96569 59.6463 6.01597 59.8118 6.01833H59.8202C60.1904 6.01597 60.4211 5.7753 60.5286 5.28258C60.6545 4.69938 60.6125 4.26767 60.4049 4.001C60.1979 3.73691 59.8042 3.5998 59.2386 3.59744L56.7718 3.59079H56.6557Z" fill="#F8FBFF"/>
<path d="M64.7544 13.0891C63.7408 13.0838 62.9691 12.9955 62.4325 12.8164C61.899 12.6347 61.5456 12.3429 61.3739 11.9378C61.206 11.5349 61.1952 10.9768 61.3494 10.2686L62.2088 6.30503C62.3594 5.60365 62.5991 5.05377 62.931 4.65022C63.2607 4.24581 63.7178 3.95571 64.2986 3.77284C64.8802 3.59105 65.6306 3.50574 66.5496 3.50574L69.0127 3.51563C69.6233 3.52015 70.0416 3.66562 70.2745 3.96474C70.5032 4.25892 70.5514 4.71726 70.4155 5.34172C70.2988 5.8901 70.0216 6.1673 69.5882 6.16493C69.3782 6.16493 69.2356 6.09489 69.1523 5.95779C69.0668 5.81747 69.0532 5.62708 69.1051 5.37889C69.1592 5.13457 69.1523 4.9661 69.0905 4.88337C69.0242 4.80021 68.8745 4.75766 68.6348 4.75766L66.2825 4.74841C65.5672 4.74841 65.0377 4.78581 64.6909 4.86123C64.3421 4.94031 64.0829 5.0903 63.911 5.31357C63.7402 5.5321 63.6034 5.87484 63.5035 6.3377L62.657 10.2404C62.554 10.714 62.5456 11.0604 62.6285 11.2776C62.7089 11.4956 62.9274 11.6439 63.2844 11.7244C63.6385 11.8037 64.2172 11.8449 65.0245 11.8465L67.0984 11.8533C67.3388 11.8533 67.5068 11.8121 67.6084 11.7293C67.7075 11.6462 67.7853 11.4809 67.8393 11.2358C67.8908 10.9891 67.9914 10.7972 68.1335 10.6578C68.2791 10.5221 68.4516 10.4521 68.6601 10.4521C69.0905 10.465 69.2477 10.7469 69.1277 11.2988C68.9975 11.9081 68.7502 12.3629 68.3907 12.6574C68.0343 12.9514 67.5486 13.0984 66.939 13.096L64.7544 13.0891Z" fill="#131718"/>
<path d="M64.7544 13.0891C63.7408 13.0838 62.9691 12.9955 62.4325 12.8164C61.899 12.6347 61.5456 12.3429 61.3739 11.9378C61.206 11.5349 61.1952 10.9768 61.3494 10.2686L62.2088 6.30503C62.3594 5.60365 62.5991 5.05377 62.931 4.65022C63.2607 4.24581 63.7178 3.95571 64.2986 3.77284C64.8802 3.59105 65.6306 3.50574 66.5496 3.50574L69.0127 3.51563C69.6233 3.52015 70.0416 3.66562 70.2745 3.96474C70.5032 4.25892 70.5514 4.71726 70.4155 5.34172C70.2988 5.8901 70.0216 6.1673 69.5882 6.16493C69.3782 6.16493 69.2356 6.09489 69.1523 5.95779C69.0668 5.81747 69.0532 5.62708 69.1051 5.37889C69.1592 5.13457 69.1523 4.9661 69.0905 4.88337C69.0242 4.80021 68.8745 4.75766 68.6348 4.75766L66.2825 4.74841C65.5672 4.74841 65.0377 4.78581 64.6909 4.86123C64.3421 4.94031 64.0829 5.0903 63.911 5.31357C63.7402 5.5321 63.6034 5.87484 63.5035 6.3377L62.657 10.2404C62.554 10.714 62.5456 11.0604 62.6285 11.2776C62.7089 11.4956 62.9274 11.6439 63.2844 11.7244C63.6385 11.8037 64.2172 11.8449 65.0245 11.8465L67.0984 11.8533C67.3388 11.8533 67.5068 11.8121 67.6084 11.7293C67.7075 11.6462 67.7853 11.4809 67.8393 11.2358C67.8908 10.9891 67.9914 10.7972 68.1335 10.6578C68.2791 10.5221 68.4516 10.4521 68.6601 10.4521C69.0905 10.465 69.2477 10.7469 69.1277 11.2988C68.9975 11.9081 68.7502 12.3629 68.3907 12.6574C68.0343 12.9514 67.5486 13.0984 66.939 13.096L64.7544 13.0891Z" fill="#131718"/>
<path d="M66.9693 13.212C66.96 13.2143 66.9494 13.212 66.9395 13.212L64.7551 13.2049C63.7329 13.2004 62.9422 13.1076 62.398 12.9265C61.8317 12.7361 61.4516 12.42 61.2706 11.9859C61.0897 11.5595 61.0792 10.9732 61.2355 10.2436L62.0949 6.27921C62.2476 5.56258 62.5005 4.99378 62.8414 4.57647C63.1849 4.15766 63.6621 3.85231 64.2652 3.66343C64.8527 3.48078 65.6265 3.3916 66.5516 3.3916L69.0147 3.40019C69.6598 3.40235 70.1138 3.56823 70.3656 3.89357C70.6185 4.21633 70.6734 4.71206 70.5314 5.36402C70.3687 6.11784 69.936 6.27922 69.5971 6.28309H69.5902C69.3361 6.28073 69.1567 6.19155 69.0531 6.01727C68.9538 5.85353 68.9323 5.63112 68.9943 5.35628C69.0582 5.06082 69.0132 4.97401 68.9973 4.95337C68.9833 4.93683 68.914 4.87345 68.6361 4.87345L66.283 4.86506C65.5801 4.86506 65.0534 4.90246 64.7176 4.97638C64.3969 5.04557 64.1596 5.18567 64.0054 5.38207C63.8436 5.58922 63.7131 5.92122 63.6186 6.36451L62.7712 10.2673C62.6749 10.7149 62.6605 11.0423 62.7363 11.2366C62.8033 11.4162 62.9956 11.5406 63.3095 11.6113C63.6513 11.6889 64.2307 11.7302 65.025 11.7325L67.1036 11.7401C67.3546 11.743 67.4791 11.6859 67.5318 11.641C67.5889 11.597 67.6669 11.4824 67.7263 11.21C67.7821 10.9435 67.8952 10.7301 68.0531 10.5756C68.2172 10.4181 68.4287 10.3403 68.66 10.3403C68.8842 10.3433 69.0507 10.4158 69.1561 10.5489C69.2904 10.7196 69.3162 10.9732 69.2416 11.3242C69.1042 11.9547 68.8439 12.4344 68.4661 12.7474C68.0944 13.0528 67.5889 13.2096 66.9693 13.212ZM66.4427 3.62453C65.5845 3.62905 64.877 3.71608 64.3345 3.88518C63.774 4.05709 63.336 4.34117 63.0215 4.7226C62.7049 5.11089 62.4682 5.65025 62.3211 6.32714L61.4645 10.2915C61.315 10.9747 61.3234 11.5153 61.4828 11.8937C61.6418 12.2693 61.9653 12.5349 62.4712 12.7064C62.9933 12.8822 63.7611 12.9699 64.7581 12.9743L66.9395 12.9827C67.5127 12.9699 67.9829 12.8435 68.3179 12.5676C68.6546 12.2928 68.8905 11.8542 69.0147 11.274C69.0735 10.9989 69.0607 10.804 68.9743 10.693C68.9117 10.6145 68.8095 10.5756 68.657 10.5681C68.4812 10.5634 68.337 10.6266 68.2124 10.7417C68.0867 10.8657 68.0027 11.0387 67.9516 11.2602C67.8928 11.5357 67.8058 11.7186 67.6813 11.8192C67.5616 11.9206 67.3791 11.9676 67.1196 11.97H67.0998L65.025 11.9629C64.2 11.9608 63.623 11.9206 63.2567 11.8368C62.8636 11.75 62.617 11.5746 62.5186 11.3204C62.4277 11.0798 62.4361 10.7196 62.5461 10.2193L63.3887 6.31575C63.4932 5.83527 63.6366 5.47576 63.8193 5.23982C64.0084 4.99829 64.2916 4.83391 64.6657 4.75161C65.025 4.6678 65.552 4.63363 66.283 4.63363L68.6361 4.64201C68.914 4.64201 69.0927 4.69831 69.1821 4.81478C69.271 4.92996 69.2835 5.11798 69.2215 5.40356C69.1741 5.6221 69.1842 5.78584 69.2506 5.89779C69.313 5.99965 69.4231 6.04993 69.5879 6.04993H69.5933C69.9659 6.04993 70.1987 5.80927 70.3046 5.31439C70.4307 4.73355 70.3902 4.30141 70.1834 4.03518C69.9764 3.77087 69.5849 3.63378 69.0147 3.63141L66.5508 3.62453H66.4427Z" fill="#F8FBFF"/>
<path d="M70.8514 12.5023L72.6613 4.14868C72.7651 3.66583 73.035 3.42603 73.4685 3.42818C73.9023 3.42818 74.0632 3.68647 73.9527 4.19897L72.4789 11.0007L79.4458 3.81518C79.6931 3.57064 79.9449 3.44752 80.1922 3.44752C80.6053 3.45052 80.7593 3.6927 80.6572 4.17619L78.8473 12.5304C78.7444 13.0019 78.4764 13.2402 78.0413 13.2364C77.6062 13.2364 77.4385 13.011 77.5362 12.5678L79.0267 5.68081L72.1353 12.8038C71.9749 12.9693 71.8435 13.0834 71.739 13.136C71.6331 13.1875 71.4986 13.216 71.3315 13.216C70.9102 13.2145 70.7476 12.9761 70.8514 12.5023Z" fill="#131718"/>
<path d="M70.8514 12.5023L72.6613 4.14868C72.7651 3.66583 73.035 3.42603 73.4685 3.42818C73.9023 3.42818 74.0632 3.68647 73.9527 4.19897L72.4789 11.0007L79.4458 3.81518C79.6931 3.57064 79.9449 3.44752 80.1922 3.44752C80.6053 3.45052 80.7593 3.6927 80.6572 4.17619L78.8473 12.5304C78.7444 13.0019 78.4764 13.2402 78.0413 13.2364C77.6062 13.2364 77.4385 13.011 77.5362 12.5678L79.0267 5.68081L72.1353 12.8038C71.9749 12.9693 71.8435 13.0834 71.739 13.136C71.6331 13.1875 71.4986 13.216 71.3315 13.216C70.9102 13.2145 70.7476 12.9761 70.8514 12.5023Z" fill="#131718"/>
<path d="M78.0509 13.3515H78.0399C77.7956 13.3515 77.6117 13.2836 77.5049 13.148C77.3935 13.0085 77.3659 12.8053 77.4217 12.5457L78.8292 6.0523L72.2185 12.8824C72.0498 13.0588 71.9103 13.177 71.7903 13.2363C71.6697 13.2986 71.5172 13.33 71.3333 13.33C71.099 13.33 70.9271 13.2646 70.8226 13.1306C70.7012 12.9867 70.6774 12.7657 70.7378 12.4786L72.5474 4.125C72.6917 3.4565 73.1192 3.31167 73.4566 3.30951H73.4686C73.7008 3.30951 73.8718 3.37935 73.9801 3.51279C74.107 3.67266 74.1358 3.90175 74.0641 4.2202L72.6781 10.6266L79.3618 3.73586C79.6375 3.46789 79.9038 3.33444 80.1939 3.33143C80.416 3.33444 80.5825 3.4002 80.6863 3.52634C80.806 3.67719 80.8327 3.89723 80.7686 4.19807L78.9582 12.554C78.8482 13.0743 78.5331 13.3491 78.0509 13.3515ZM79.2268 5.30537L77.6491 12.5915C77.6071 12.784 77.6212 12.922 77.6867 13.004C77.75 13.081 77.8684 13.1213 78.0414 13.1213H78.0509C78.4239 13.1198 78.6422 12.922 78.7323 12.5047L80.539 4.15014C80.5902 3.92323 80.5794 3.76163 80.5047 3.67266C80.4465 3.60025 80.3404 3.56522 80.1924 3.56522H80.187C79.9733 3.56522 79.7519 3.67718 79.529 3.89723L72.2797 11.3707L73.8373 4.17143C73.8901 3.93011 73.8771 3.75711 73.7968 3.65741C73.7374 3.58048 73.626 3.54332 73.4686 3.54159H73.4566C73.0832 3.54332 72.866 3.74659 72.7742 4.17143L70.9652 12.5259C70.9181 12.7421 70.9309 12.8968 71.0011 12.9867C71.063 13.0589 71.1735 13.0962 71.3339 13.0983C71.4888 13.0962 71.5986 13.0788 71.685 13.033C71.7781 12.9827 71.9025 12.8801 72.0513 12.7244L79.2268 5.30537Z" fill="#F8FBFF"/>
<path d="M87.2689 12.5845L88.0533 8.96284L85.8689 8.95384C85.3925 8.95384 85.0248 9.02862 84.7584 9.18076C84.4911 9.33227 84.2669 9.59145 84.0845 9.95607L83.4022 11.3314C83.1004 11.91 82.7121 12.3752 82.238 12.724C81.764 13.0736 81.2817 13.2457 80.7863 13.2457C80.245 13.2434 80.023 13.0371 80.1124 12.6219C80.2032 12.2153 80.5138 12.0169 81.0495 12.0198C81.2382 12.0198 81.4305 11.9345 81.6336 11.7615C81.835 11.5888 81.9832 11.4152 82.0726 11.2361L82.8327 9.72898C83.0746 9.27684 83.3897 8.89519 83.7769 8.59456C82.8296 8.14675 82.4762 7.36779 82.7196 6.2519C82.9044 5.38548 83.3752 4.7215 84.1265 4.25864C84.8754 3.79856 85.856 3.56929 87.0649 3.5738L89.9166 3.58218C90.3284 3.58669 90.4803 3.83595 90.3722 4.33986L88.5862 12.5895C88.4884 13.0431 88.2259 13.2694 87.8039 13.2678C87.3497 13.2655 87.1711 13.0386 87.2689 12.5845ZM88.9496 4.82271L86.7979 4.81584C85.9491 4.81347 85.3057 4.92864 84.8674 5.1648C84.4293 5.4001 84.1538 5.77829 84.0395 6.30153C83.8372 7.23822 84.5478 7.70817 86.1689 7.71419L88.3221 7.72106L88.9496 4.82271Z" fill="#131718"/>
<path d="M87.2689 12.5845L88.0533 8.96284L85.8689 8.95384C85.3925 8.95384 85.0248 9.02862 84.7584 9.18076C84.4911 9.33227 84.2669 9.59145 84.0845 9.95607L83.4022 11.3314C83.1004 11.91 82.7121 12.3752 82.238 12.724C81.764 13.0736 81.2817 13.2457 80.7863 13.2457C80.245 13.2434 80.023 13.0371 80.1124 12.6219C80.2032 12.2153 80.5138 12.0169 81.0495 12.0198C81.2382 12.0198 81.4305 11.9345 81.6336 11.7615C81.835 11.5888 81.9832 11.4152 82.0726 11.2361L82.8327 9.72898C83.0746 9.27684 83.3897 8.89519 83.7769 8.59456C82.8296 8.14675 82.4762 7.36779 82.7196 6.2519C82.9044 5.38548 83.3752 4.7215 84.1265 4.25864C84.8754 3.79856 85.856 3.56929 87.0649 3.5738L89.9166 3.58218C90.3284 3.58669 90.4803 3.83595 90.3722 4.33986L88.5862 12.5895C88.4884 13.0431 88.2259 13.2694 87.8039 13.2678C87.3497 13.2655 87.1711 13.0386 87.2689 12.5845ZM88.9496 4.82271L86.7979 4.81584C85.9491 4.81347 85.3057 4.92864 84.8674 5.1648C84.4293 5.4001 84.1538 5.77829 84.0395 6.30153C83.8372 7.23822 84.5478 7.70817 86.1689 7.71419L88.3221 7.72106L88.9496 4.82271Z" fill="#131718"/>
<path d="M87.8146 13.3836H87.8032C87.5421 13.3836 87.3527 13.3114 87.2405 13.1743C87.1271 13.0297 87.0995 12.8273 87.1566 12.5612L87.9108 9.07906L85.8681 9.07069C85.424 9.07906 85.0613 9.14074 84.8171 9.28147C84.5706 9.42158 84.3609 9.66614 84.1899 10.0065L83.5076 11.3817C83.1968 11.9781 82.7938 12.4579 82.3092 12.8187C81.8129 13.1803 81.301 13.3647 80.7834 13.3602C80.4437 13.3602 80.2155 13.2809 80.0864 13.1241C79.9828 12.9923 79.9529 12.8142 79.9994 12.5987C80.0699 12.2795 80.3102 11.9125 81.0481 11.9018H81.0526C81.2109 11.9018 81.3787 11.8251 81.5573 11.6725C81.7481 11.5104 81.8864 11.3467 81.9674 11.183L82.7289 9.67755C82.9486 9.26489 83.2319 8.91143 83.567 8.61597C82.6902 8.13398 82.3649 7.3329 82.6015 6.22862C82.8001 5.33319 83.2898 4.63953 84.0641 4.1612C84.815 3.70286 85.7982 3.46455 86.9888 3.45831H87.065L89.9176 3.46756C90.1365 3.46821 90.3008 3.53224 90.4018 3.66096C90.5277 3.8161 90.5536 4.04538 90.4858 4.36384L88.7 12.6154C88.5899 13.115 88.2848 13.3815 87.8146 13.3836ZM87.384 12.6109C87.342 12.8028 87.3535 12.9429 87.4223 13.0282C87.4887 13.1087 87.6153 13.1521 87.8032 13.1521C88.1712 13.1546 88.3846 12.9663 88.4717 12.5652L90.2588 4.31443C90.3089 4.0759 90.2973 3.90141 90.2231 3.80558C90.1642 3.73552 90.0605 3.69985 89.9149 3.69985L87.065 3.68997C85.8912 3.68137 84.914 3.91066 84.1869 4.35697C83.4671 4.80093 83.0113 5.44428 82.8306 6.27824C82.5999 7.34106 82.9266 8.0648 83.8259 8.48726L83.9945 8.56871L83.8494 8.68624C83.4761 8.97844 83.167 9.35028 82.9358 9.78432L82.1756 11.2881C82.0779 11.4775 81.9239 11.668 81.7085 11.8494C81.4855 12.0389 81.271 12.1394 81.0481 12.1325C80.5764 12.1325 80.3011 12.2984 80.2268 12.6459C80.1941 12.7929 80.2079 12.904 80.2682 12.9756C80.3477 13.0761 80.5269 13.1288 80.7864 13.1288C81.2467 13.1241 81.7169 12.9642 82.1696 12.6313C82.6251 12.294 83.0068 11.8388 83.2976 11.2775L83.9831 9.90438C84.1716 9.52211 84.4164 9.24341 84.699 9.08209C84.9745 8.92452 85.3586 8.8429 85.8371 8.83838H85.8681L88.1977 8.84741L87.384 12.6109ZM88.4146 7.83701L86.1684 7.82864C85.1033 7.8265 84.4279 7.62665 84.1044 7.22545C83.9037 6.97962 83.8434 6.66052 83.9258 6.27824C84.0478 5.72363 84.3447 5.31342 84.811 5.06265C85.2683 4.81832 85.9241 4.69584 86.7973 4.70035L89.093 4.70874L88.4146 7.83701ZM86.7194 4.93114C85.934 4.93565 85.328 5.04761 84.922 5.26615C84.5112 5.48834 84.2595 5.83515 84.1539 6.32617C84.0846 6.6429 84.1281 6.88809 84.2838 7.08235C84.5578 7.42273 85.192 7.59634 86.1699 7.59936L88.2292 7.60559L88.8047 4.93802L86.7949 4.93114H86.7194Z" fill="#F8FBFF"/>
<path d="M96.7873 9.47137C96.7105 9.3777 96.6881 9.25363 96.7239 9.09356C96.7587 8.9277 96.8355 8.79896 96.9526 8.70914C97.0723 8.62448 97.2116 8.57806 97.3769 8.57806L103.124 8.59869C103.301 8.59869 103.427 8.64382 103.498 8.73063C103.573 8.8211 103.592 8.949 103.556 9.11807C103.519 9.28394 103.444 9.4129 103.332 9.49971C103.222 9.58955 103.077 9.63269 102.9 9.63269L97.1536 9.61379C96.9865 9.61379 96.8659 9.56736 96.7873 9.47137Z" fill="#131718"/>
<path d="M96.7873 9.47137C96.7105 9.3777 96.6881 9.25363 96.7239 9.09356C96.7587 8.9277 96.8355 8.79896 96.9526 8.70914C97.0723 8.62448 97.2116 8.57806 97.3769 8.57806L103.124 8.59869C103.301 8.59869 103.427 8.64382 103.498 8.73063C103.573 8.8211 103.592 8.949 103.556 9.11807C103.519 9.28394 103.444 9.4129 103.332 9.49971C103.222 9.58955 103.077 9.63269 102.9 9.63269L97.1536 9.61379C96.9865 9.61379 96.8659 9.56736 96.7873 9.47137Z" fill="#131718"/>
<path d="M102.911 9.74909H102.9L97.1519 9.73233C96.9527 9.72992 96.7981 9.66673 96.6999 9.54579C96.598 9.42458 96.5668 9.26468 96.607 9.07065C96.6507 8.87642 96.7436 8.7232 96.8839 8.61899C97.0224 8.51455 97.1876 8.46598 97.3779 8.46448L103.124 8.48102C103.336 8.48102 103.492 8.54291 103.588 8.65787C103.686 8.77649 103.713 8.94026 103.67 9.14053C103.629 9.33474 103.537 9.48688 103.406 9.59071C103.275 9.6949 103.11 9.74757 102.911 9.74909ZM97.369 8.69506C97.2323 8.69506 97.1206 8.73007 97.0224 8.80464C96.9286 8.87641 96.8669 8.97698 96.8356 9.11923C96.8088 9.24017 96.8231 9.33242 96.8767 9.39819V9.40033C96.933 9.46584 97.0224 9.49935 97.1537 9.49935L102.901 9.51593C103.043 9.51593 103.171 9.48028 103.261 9.41165C103.353 9.33687 103.413 9.23661 103.441 9.09258C103.471 8.96388 103.459 8.86566 103.411 8.80464C103.361 8.74619 103.264 8.71483 103.124 8.71483L97.3761 8.69506H97.3725H97.369Z" fill="#F8FBFF"/>
<path d="M40.8633 17.2388L37.463 33.0217H102.014L105.415 17.2388H40.8633Z" fill="#3C6B9A"/>
<path d="M46.4575 30.4304C45.4454 30.4304 44.673 30.3367 44.1365 30.1588C43.6004 29.9781 43.2494 29.6865 43.0783 29.2798C42.9091 28.8764 42.9 28.3196 43.0534 27.6084L43.9104 23.6464C44.0623 22.948 44.3035 22.3974 44.6341 21.9915C44.9623 21.588 45.4211 21.2979 46.0002 21.1167C46.5835 20.9353 47.3321 20.8456 48.2542 20.85L50.7173 20.8569C51.3262 20.8614 51.7477 21.0069 51.9774 21.3063C52.2056 21.6032 52.2538 22.0594 52.121 22.6815C52.0012 23.2335 51.724 23.5093 51.289 23.5093C51.0844 23.5093 50.9385 23.439 50.8556 23.2969C50.7731 23.162 50.7576 22.9679 50.8089 22.7232C50.8631 22.4765 50.8571 22.3106 50.7921 22.2253C50.7263 22.1415 50.5793 22.1011 50.3395 22.0989L47.9839 22.0921C47.2725 22.0906 46.742 22.1294 46.3948 22.2055C46.0455 22.2846 45.7887 22.4325 45.615 22.6533C45.4424 22.8758 45.3056 23.2177 45.2072 23.6814L44.3607 27.5849C44.2578 28.0586 44.2485 28.4026 44.3311 28.6187C44.4133 28.8397 44.631 28.986 44.9852 29.0668C45.3416 29.1465 45.921 29.1863 46.7276 29.1884L48.8022 29.1953C49.0395 29.1968 49.2099 29.1557 49.3119 29.0713C49.4106 28.9897 49.4868 28.8246 49.5412 28.5777C49.5952 28.3301 49.6936 28.1406 49.8379 28.0012C49.9808 27.8635 50.1556 27.7964 50.3615 27.7964C50.7942 27.8071 50.9499 28.0882 50.8302 28.6402C50.6973 29.2524 50.4532 29.7056 50.0953 30.0009C49.735 30.2959 49.2534 30.4421 48.6427 30.4397L46.4575 30.4304Z" fill="#F8FBFF"/>
<path d="M48.6765 30.5563H48.6414L46.4577 30.5479C45.438 30.5456 44.6441 30.4474 44.1014 30.266C43.5358 30.0788 43.155 29.7619 42.9711 29.3256C42.7934 28.9 42.7818 28.315 42.9407 27.5857L43.7971 23.622C43.9543 22.9077 44.2046 22.3357 44.5434 21.9186C44.8876 21.4998 45.3646 21.1935 45.9662 21.0062C46.5567 20.8212 47.3246 20.7322 48.2544 20.7337L50.7169 20.7421C51.3623 20.7421 51.8181 20.9101 52.0677 21.2355C52.3195 21.559 52.3753 22.0524 52.2341 22.7065C52.0677 23.4606 51.6372 23.622 51.2999 23.6235H51.29C51.0425 23.6235 50.8618 23.5345 50.7563 23.3577C50.6563 23.1954 50.6344 22.9732 50.6954 22.6982C50.7578 22.4015 50.716 22.3168 50.6998 22.2961C50.6878 22.2794 50.6159 22.2155 50.3397 22.2155L47.9849 22.2072C47.2828 22.2048 46.7577 22.242 46.4189 22.3168C46.1012 22.3875 45.8585 22.5254 45.7067 22.724C45.5447 22.9313 45.4168 23.2589 45.3181 23.7043L44.4747 27.6076C44.3777 28.0578 44.3655 28.3827 44.438 28.5785C44.5052 28.756 44.6983 28.8802 45.012 28.9539C45.3562 29.0302 45.9326 29.0705 46.7271 29.0751L48.8032 29.0811C49.0024 29.0811 49.1581 29.0491 49.2361 28.9829C49.2911 28.9374 49.3688 28.8269 49.4276 28.5527C49.4871 28.2845 49.5968 28.0698 49.7565 27.9169C49.9184 27.7622 50.1205 27.6816 50.3533 27.6801H50.3617C50.5876 27.6854 50.7542 27.7553 50.8588 27.8918C50.9937 28.0602 51.0197 28.315 50.9426 28.6647C50.8044 29.302 50.5465 29.7788 50.1702 30.0878C49.797 30.3934 49.2941 30.55 48.6765 30.5563ZM48.1407 20.9619C47.2888 20.969 46.5813 21.0564 46.0356 21.2271C45.4786 21.4023 45.0381 21.681 44.7243 22.0655C44.4051 22.4508 44.1723 22.9922 44.0221 23.6714L43.1671 27.6336C43.0206 28.315 43.0275 28.8542 43.1871 29.2365C43.3398 29.6073 43.6741 29.8777 44.1746 30.0475C44.6967 30.2211 45.4647 30.3103 46.4592 30.3172L48.6429 30.3231C49.229 30.3201 49.6863 30.1854 50.0199 29.9104C50.3556 29.6334 50.5901 29.196 50.7169 28.6159C50.7763 28.3387 50.7626 28.1444 50.6764 28.0334C50.6135 27.954 50.5099 27.9154 50.3587 27.9106C50.1868 27.913 50.0397 27.968 49.9169 28.0827C49.7907 28.2055 49.7022 28.3782 49.6542 28.603C49.5968 28.8757 49.5092 29.0592 49.3834 29.1598C49.2619 29.2625 49.0651 29.3119 48.8032 29.3119L46.7271 29.3029C45.9043 29.3029 45.3243 29.2601 44.9625 29.1771C44.5664 29.0871 44.3189 28.9131 44.2226 28.6578C44.1305 28.4216 44.1397 28.0602 44.2472 27.5598L45.0945 23.6562C45.1945 23.1786 45.3411 22.8155 45.5236 22.5826C45.7112 22.3401 45.9953 22.1743 46.369 22.0914C46.7233 22.0122 47.2667 21.9734 47.9849 21.9749L50.3397 21.9824C50.6185 21.9839 50.7977 22.0387 50.8838 22.1548C50.9723 22.2704 50.9831 22.4598 50.9236 22.744C50.8754 22.9625 50.8868 23.1286 50.9543 23.2403C51.0161 23.3416 51.1274 23.3903 51.29 23.3903H51.2976C51.6671 23.3903 51.8998 23.1497 52.0053 22.6587C52.1347 22.0739 52.0912 21.6435 51.8853 21.3778C51.6786 21.1114 51.2844 20.9765 50.7169 20.9736L48.2529 20.9619H48.1407Z" fill="#F8FBFF"/>
<path d="M60.2604 20.8866C60.7678 20.8888 60.9748 21.0974 60.8863 21.5126C60.796 21.9254 60.5001 22.1332 59.9909 22.1308L57.7919 22.1239L56.1118 29.8859C56.0699 30.0832 55.9624 30.2447 55.7959 30.3709C55.6296 30.4996 55.4326 30.5637 55.2051 30.5637C54.9755 30.5637 54.8142 30.4996 54.7173 30.3869C54.6167 30.2659 54.593 30.0983 54.6396 29.8806L56.3195 22.1179L54.0893 22.1111C53.8519 22.1111 53.6772 22.0523 53.5686 21.9382C53.4579 21.8225 53.4243 21.674 53.4633 21.489C53.5053 21.2994 53.6046 21.1507 53.7631 21.0366C53.9221 20.924 54.1213 20.8666 54.3572 20.8699L60.2604 20.8866Z" fill="#F8FBFF"/>
<path d="M55.2168 30.6766H55.2023C54.9428 30.6766 54.7466 30.6042 54.6277 30.4579C54.5047 30.3118 54.4702 30.1091 54.5246 29.8562L56.1754 22.233L54.0886 22.2261C53.8178 22.2237 53.6169 22.1569 53.4866 22.0198C53.3483 21.8773 53.3003 21.6915 53.3501 21.4624C53.3981 21.2482 53.5131 21.0724 53.6979 20.9437C53.8752 20.8164 54.0955 20.7488 54.3583 20.7511L60.2614 20.7733C60.5766 20.7747 60.7887 20.847 60.913 20.9993C61.0168 21.1334 61.0483 21.3139 60.9993 21.5363C60.9285 21.8597 60.6995 22.242 60.0077 22.2465H59.9918L57.8869 22.2375L56.2237 29.9073C56.1754 30.1327 56.0559 30.3202 55.8672 30.4647C55.681 30.6042 55.4649 30.6766 55.2168 30.6766ZM54.3475 20.9841C54.139 20.9841 53.9667 21.032 53.8317 21.1334C53.6942 21.2293 53.6133 21.3513 53.5782 21.5125C53.5469 21.6588 53.5689 21.7752 53.6529 21.8573C53.7384 21.9495 53.8857 21.9953 54.0886 21.9953L56.4641 22.0014L54.7543 29.9035C54.7145 30.0878 54.7315 30.2204 54.8045 30.3103C54.8825 30.4015 55.0147 30.4449 55.2055 30.4474C55.4001 30.4519 55.5789 30.3932 55.7262 30.2812C55.8726 30.1702 55.9594 30.0322 55.9969 29.8601L57.6991 22.0058L59.9918 22.0153C60.4461 22.0058 60.6933 21.8492 60.7719 21.4891C60.8047 21.3359 60.7917 21.2224 60.7338 21.1455C60.6574 21.0517 60.4973 21.006 60.2614 21.0039L54.3583 20.9841H54.349H54.3475Z" fill="#F8FBFF"/>
<path d="M61.9044 29.9037C61.8059 30.3578 61.5402 30.5853 61.1081 30.5808C60.6747 30.5808 60.506 30.3538 60.603 29.8992L62.4105 21.5608C62.4594 21.3247 62.553 21.1418 62.6905 21.0148C62.8262 20.8884 62.9935 20.8208 63.1912 20.8229L66.1489 20.8336C67.4709 20.8403 68.3906 21.024 68.9037 21.3965C69.4189 21.7701 69.5851 22.3643 69.4079 23.1827C69.2256 24.0204 68.8293 24.6555 68.2196 25.0864C67.6083 25.516 66.8168 25.7315 65.8327 25.7278L62.8111 25.7193L61.9044 29.9037ZM65.3556 24.4856C66.4013 24.488 67.0901 24.4074 67.429 24.2411C67.7587 24.0949 67.9775 23.7737 68.083 23.2834C68.1548 22.9445 68.144 22.6939 68.047 22.5278C67.9495 22.3596 67.7356 22.2437 67.4082 22.1769C67.0823 22.1129 66.5702 22.0787 65.8793 22.0763L63.6026 22.0694L63.0806 24.4787L65.3556 24.4856Z" fill="#F8FBFF"/>
<path d="M61.1194 30.7H61.1079C60.8628 30.6961 60.6845 30.6285 60.5766 30.4944C60.4622 30.3558 60.4338 30.1457 60.4896 29.8752L62.2963 21.536C62.3537 21.2762 62.4582 21.0732 62.61 20.9277C62.7703 20.7814 62.9772 20.7089 63.1909 20.7068L66.1501 20.7182C67.5105 20.7212 68.4346 20.9137 68.9727 21.3031C69.523 21.7022 69.7078 22.3416 69.5224 23.2062C69.3351 24.071 68.9193 24.7344 68.2873 25.1799C67.659 25.6229 66.821 25.8522 65.8332 25.8432L62.9069 25.8363L62.0192 29.927C61.9116 30.4294 61.601 30.6961 61.1194 30.7ZM63.1825 20.9391C63.0166 20.9406 62.8834 20.9931 62.7712 21.1005C62.652 21.2087 62.5689 21.3732 62.523 21.5841L60.7185 29.9226C60.6759 30.1213 60.6875 30.266 60.7553 30.3489C60.817 30.425 60.9354 30.4662 61.1095 30.4662H61.1194C61.4926 30.4638 61.7057 30.2765 61.7933 29.8798L62.7177 25.6031L65.8332 25.6139C66.7781 25.6139 67.5645 25.4068 68.1521 24.9918C68.7353 24.5797 69.12 23.9612 69.2955 23.1567C69.4635 22.3806 69.313 21.8354 68.8353 21.4905C68.3459 21.134 67.44 20.9535 66.1492 20.9489L63.1894 20.9391H63.1833H63.1825ZM65.5151 24.6027H65.3562L62.9362 24.5943L63.5092 21.951L65.8798 21.9579C66.5761 21.9594 67.0997 21.9967 67.431 22.0623C67.7911 22.1345 68.0306 22.2701 68.1446 22.468C68.262 22.6622 68.2751 22.938 68.1994 23.3043C68.0836 23.8321 67.8399 24.1839 67.4745 24.3452C67.1432 24.5112 66.4966 24.5966 65.5151 24.6027ZM65.3562 24.3695C66.382 24.374 67.0584 24.2958 67.3767 24.1366C67.6774 24.0025 67.8735 23.7169 67.972 23.2571C68.037 22.9532 68.0275 22.7263 67.9453 22.5841C67.8658 22.447 67.6774 22.3464 67.3857 22.289C67.0689 22.226 66.5608 22.1932 65.8798 22.1887L63.6956 22.1817L63.2268 24.3613L65.3562 24.3695Z" fill="#F8FBFF"/>
<path d="M75.7537 20.9392L77.5269 29.867C77.5369 29.9638 77.5269 30.0892 77.4964 30.2332C77.4665 30.3757 77.3734 30.4975 77.2209 30.6064C77.0667 30.7137 76.9032 30.7663 76.7271 30.7663C76.4063 30.7631 76.2188 30.6064 76.1644 30.2903L75.6805 27.7296L71.4971 27.7164L69.9057 30.2682C69.6912 30.5822 69.4378 30.7441 69.1378 30.742C68.9608 30.742 68.8195 30.6858 68.715 30.5781C68.6082 30.4694 68.5707 30.3454 68.5989 30.2074C68.634 30.0613 68.6746 29.9362 68.7256 29.8389L74.3608 20.9345L75.7537 20.9392ZM74.6395 22.798L72.291 26.476L75.4224 26.4851L74.6395 22.798Z" fill="#F8FBFF"/>
<path d="M76.7369 30.8795H76.7261C76.3507 30.8795 76.1139 30.6831 76.0491 30.3122L75.5829 27.8457L71.561 27.8329L70.0048 30.3311C69.7666 30.6786 69.4782 30.855 69.1446 30.855H69.137C68.9292 30.855 68.7584 30.7903 68.6315 30.6594C68.4995 30.5215 68.4506 30.3571 68.4872 30.1835C68.5201 30.0236 68.5691 29.8889 68.6247 29.7838L74.295 20.8184L75.8505 20.8209L75.8682 20.9144L77.6406 29.8431C77.6535 29.965 77.6406 30.0982 77.6076 30.2598C77.5725 30.4272 77.4642 30.5742 77.2872 30.6983C77.1176 30.821 76.9329 30.8795 76.7369 30.8795ZM71.4322 27.6005L75.7773 27.6141L76.2773 30.2679C76.3237 30.5324 76.462 30.6502 76.7276 30.6502H76.7345C76.8848 30.648 77.0216 30.6046 77.1521 30.511C77.2809 30.4194 77.3559 30.3206 77.3826 30.2116C77.4099 30.0784 77.4198 29.965 77.4129 29.8782L75.6597 21.0545L74.4249 21.0501L68.8248 29.8994C68.7812 29.9802 68.7422 30.092 68.7149 30.2307C68.6909 30.3311 68.7194 30.4149 68.798 30.4972C68.8818 30.5848 68.9912 30.6268 69.137 30.6268H69.1422C69.4003 30.6235 69.6172 30.4843 69.8101 30.205L71.4322 27.6005ZM75.5667 26.6013L72.0807 26.5899L74.6942 22.4969L75.5667 26.6013ZM72.5022 26.3607L75.2781 26.3721L74.5837 23.0992L72.5022 26.3607Z" fill="#F8FBFF"/>
<path d="M80.3505 29.9366C80.2466 30.4078 79.9793 30.6463 79.5452 30.644C79.1101 30.6416 78.9442 30.4034 79.048 29.9321L80.8579 21.5759C80.96 21.0939 81.2197 20.8556 81.6341 20.8556C82.0882 20.8556 82.2624 21.0977 82.1586 21.5804L81.47 24.7584L86.861 24.7768L87.5511 21.6004C87.6548 21.1154 87.9233 20.8756 88.3595 20.8756C88.7944 20.8792 88.9576 21.1177 88.8525 21.6004L87.0442 29.9555C86.942 30.4291 86.6732 30.6653 86.2367 30.6629C85.8055 30.6629 85.6407 30.4276 85.7421 29.9517L86.5946 26.0201L81.2008 26.0034L80.3505 29.9366Z" fill="#F8FBFF"/>
<path d="M86.2477 30.7813H86.2378C85.999 30.7791 85.821 30.7089 85.7127 30.5757C85.5951 30.4296 85.5684 30.2118 85.6287 29.9299L86.4508 26.1331L81.298 26.1188L80.4644 29.9587C80.3514 30.4796 80.0385 30.7555 79.5545 30.7577H79.5463C79.3036 30.7577 79.1263 30.6893 79.0204 30.5559C78.9027 30.4083 78.8723 30.1895 78.9363 29.9063L80.7445 21.5542C80.8888 20.8842 81.3004 20.7402 81.6245 20.7402H81.6317C81.888 20.7402 82.0734 20.8093 82.1832 20.9494C82.3056 21.0973 82.336 21.3182 82.2702 21.6044L81.6146 24.6445L86.7683 24.6603L87.4345 21.5733C87.5812 20.906 88.0093 20.7638 88.3481 20.7621H88.3598C88.5956 20.7621 88.7733 20.8294 88.8819 20.9617C89 21.111 89.0292 21.3363 88.9657 21.6265L87.1582 29.9802C87.0431 30.5019 86.7308 30.7768 86.2477 30.7813ZM81.1081 25.8849L86.7371 25.9047L85.8552 29.9757C85.8102 30.1895 85.821 30.3451 85.8937 30.4296C85.9552 30.5109 86.0706 30.5475 86.2399 30.5499H86.2477C86.6224 30.5454 86.8393 30.3496 86.93 29.9322L88.7373 21.5763C88.7847 21.3577 88.7733 21.2007 88.701 21.1066C88.6374 21.0318 88.5221 20.9929 88.3583 20.9914H88.3481C87.974 20.9929 87.7567 21.1961 87.6636 21.6242L86.9574 24.892L81.3269 24.8743L82.0467 21.5542C82.0917 21.341 82.0779 21.1848 82.0047 21.0935C81.939 21.0137 81.813 20.9718 81.6332 20.9718H81.6251C81.2711 20.9733 81.0628 21.1719 80.9689 21.6L79.1622 29.9557C79.1166 30.1676 79.1278 30.3206 79.2022 30.4083C79.2616 30.4846 79.3798 30.5263 79.5463 30.5263H79.5545C79.9295 30.5232 80.1468 30.329 80.2377 29.9117L81.1081 25.8849Z" fill="#F8FBFF"/>
<path d="M95.6169 21.002L97.3911 29.9323C97.4 30.0282 97.3893 30.1532 97.358 30.3008C97.3277 30.4388 97.2357 30.5604 97.0829 30.6693C96.9319 30.7768 96.7667 30.8316 96.5925 30.8316C96.27 30.8286 96.0824 30.6715 96.0261 30.3556L95.5428 27.7955L91.3602 27.7796L89.7674 30.3357C89.5557 30.6503 89.2979 30.8071 89.0002 30.8071C88.8224 30.8071 88.6828 30.7508 88.5766 30.6412C88.4713 30.5346 88.4341 30.4098 88.4631 30.2726C88.495 30.1242 88.5376 30.0015 88.5895 29.9018L94.2242 20.9974L95.6169 21.002ZM94.5021 22.863L92.1535 26.5421L95.2846 26.5481L94.5021 22.863Z" fill="#F8FBFF"/>
<path d="M96.5963 30.9478H96.5918C96.213 30.9478 95.9781 30.7491 95.912 30.3758L95.4466 27.9094L91.4248 27.8957L89.8659 30.3982C89.6283 30.7491 89.3397 30.9242 88.9979 30.9242C88.7902 30.9221 88.6222 30.8542 88.4947 30.7227C88.3635 30.5878 88.3125 30.4216 88.348 30.2474C88.3833 30.0927 88.429 29.9594 88.4863 29.8498L94.1619 20.8825L95.7128 20.887L95.7315 20.9807L97.503 29.9083C97.5182 30.031 97.5048 30.1644 97.4682 30.3258C97.4342 30.494 97.327 30.6403 97.1501 30.7643C96.9804 30.8847 96.7964 30.9478 96.5963 30.9478ZM91.2943 27.6673L95.6413 27.6804L96.1416 30.3339C96.188 30.5984 96.3256 30.7162 96.5918 30.7162H96.5963C96.7473 30.7162 96.8848 30.6706 97.0161 30.577C97.1439 30.4871 97.2198 30.3872 97.2431 30.2777C97.2734 30.1399 97.2815 30.0288 97.2752 29.9442L95.5216 21.1208L94.287 21.1139L88.6877 29.9656C88.6459 30.0462 88.6048 30.1629 88.5772 30.2976C88.555 30.3982 88.5802 30.4809 88.6597 30.564C88.7443 30.6464 88.855 30.6898 88.9994 30.6928H89.0069C89.2642 30.6898 89.4818 30.5512 89.6721 30.271L91.2943 27.6673ZM95.4287 26.6673L91.9465 26.6559L94.5577 22.5629L95.4287 26.6673ZM92.3681 26.4267L95.1419 26.436L94.4478 23.166L92.3681 26.4267Z" fill="#F8FBFF"/>
<path d="M3.36729 34.3004L0 49.9234H130.635L134 34.2975L3.36729 34.3004Z" fill="#CE4D5D"/>
<path d="M7.19117 37.9769C7.24308 37.7393 7.33548 37.5549 7.47353 37.4285C7.6103 37.3023 7.77357 37.2367 7.96827 37.2389L10.8848 37.2505C11.8021 37.2505 12.5225 37.337 13.0362 37.5077C13.5538 37.6755 13.9018 37.9396 14.0821 38.2998C14.263 38.6622 14.2904 39.1374 14.1612 39.73C14.0147 40.4084 13.7149 40.9367 13.2615 41.3077C13.9697 41.7531 14.1972 42.5716 13.9409 43.7505L13.8788 44.0339C13.7248 44.7443 13.4758 45.3002 13.131 45.7023C12.7845 46.1082 12.3059 46.3961 11.6952 46.5704C11.0831 46.7462 10.2763 46.8332 9.27348 46.8309L5.89672 46.8195C5.70051 46.8195 5.56158 46.754 5.48059 46.623C5.40069 46.495 5.38519 46.313 5.4358 46.0777L7.19117 37.9769ZM7.57585 42.2093L6.84764 45.5798L9.54291 45.5858C10.3397 45.5903 10.9283 45.553 11.3106 45.4753C11.6967 45.3984 11.9776 45.2547 12.1568 45.0428C12.3386 44.829 12.4775 44.4932 12.5775 44.0277L12.6317 43.7939C12.7302 43.3286 12.741 42.9904 12.6645 42.782C12.5859 42.5671 12.3867 42.4231 12.0754 42.3404C11.7625 42.2597 11.2548 42.2198 10.5526 42.2177L7.57585 42.2093ZM10.0771 40.9742C10.7685 40.9742 11.2959 40.9451 11.6647 40.876C12.0304 40.808 12.3012 40.6901 12.4775 40.5216C12.6524 40.3557 12.7776 40.1054 12.8501 39.7687C12.9217 39.4328 12.9072 39.1861 12.8028 39.0224C12.699 38.8578 12.4775 38.7407 12.1424 38.6704C11.8051 38.6006 11.2905 38.5662 10.5977 38.564L8.36738 38.5578L7.84464 40.9658L10.0771 40.9742Z" fill="#F8FBFF"/>
<path d="M9.42116 46.9458H9.27537L5.89643 46.9344C5.65887 46.9344 5.48505 46.8497 5.38339 46.6862C5.28712 46.5333 5.26666 46.3199 5.32309 46.0528L7.07954 37.9501C7.1351 37.6935 7.23956 37.4873 7.39335 37.3465C7.55036 37.1971 7.74205 37.1232 7.96411 37.1232H7.97186L10.8852 37.1316C11.8132 37.1338 12.5492 37.2229 13.0743 37.3936C13.6192 37.5738 13.994 37.8602 14.1869 38.2496C14.3792 38.6319 14.4077 39.1373 14.2748 39.7534C14.135 40.397 13.8596 40.917 13.4495 41.2972C14.1008 41.786 14.3061 42.6165 14.0541 43.7788L13.994 44.0582C13.8382 44.7824 13.5772 45.3612 13.2201 45.7785C12.8589 46.1973 12.359 46.5004 11.7262 46.6817C11.1354 46.8521 10.3616 46.939 9.42116 46.9458ZM7.96648 37.3516C7.79999 37.354 7.66473 37.4073 7.55187 37.513C7.43427 37.6252 7.35113 37.7865 7.30611 37.9988L5.54988 46.1015C5.50638 46.3061 5.51542 46.4638 5.57983 46.5642C5.63841 46.6557 5.74222 46.7045 5.89643 46.7045L9.27689 46.7168C10.2646 46.7191 11.0637 46.63 11.6629 46.4614C12.2498 46.2917 12.7131 46.0115 13.0437 45.6277C13.375 45.2418 13.6169 44.6979 13.7663 44.0103L13.826 43.7277C14.075 42.5886 13.8695 41.8316 13.2022 41.4059L13.0627 41.3229L13.1872 41.22C13.6169 40.8669 13.9061 40.3557 14.048 39.7031C14.168 39.1418 14.1458 38.6873 13.9787 38.3523C13.8167 38.024 13.487 37.7758 12.9993 37.6157C12.5009 37.453 11.7889 37.3676 10.8852 37.363L7.96863 37.3516H7.96648ZM9.73409 45.7038H9.54265L6.70391 45.6948L7.48316 42.0911L10.5524 42.1051C11.2721 42.1051 11.7757 42.1453 12.1046 42.2267C12.4568 42.3189 12.6801 42.4904 12.7719 42.7401C12.8589 42.9745 12.8499 43.3286 12.743 43.8162L12.6933 44.0537C12.5886 44.5341 12.4376 44.8898 12.2468 45.1145C12.0514 45.3483 11.7438 45.5065 11.3361 45.5857C10.979 45.6619 10.4384 45.6993 9.73409 45.7038ZM6.99166 45.4639L9.54417 45.4709C10.3265 45.4709 10.9155 45.4382 11.2872 45.3595C11.6455 45.2897 11.9093 45.1579 12.0697 44.9661C12.2345 44.7703 12.3683 44.4467 12.4643 44.0057L12.5162 43.7696C12.6116 43.3286 12.6246 43.0104 12.5543 42.82C12.4893 42.6464 12.3223 42.5228 12.0467 42.4515C11.7438 42.3746 11.2407 42.3357 10.5524 42.3326L7.67011 42.3228L6.99166 45.4639ZM10.2515 41.0898H10.0777L7.70372 41.0808L8.27469 38.4391L10.6004 38.4482C11.2965 38.4505 11.8223 38.488 12.166 38.5586C12.5376 38.638 12.7779 38.7697 12.9016 38.9592C13.0239 39.1511 13.0443 39.4235 12.9627 39.7923C12.8871 40.148 12.7482 40.4242 12.5591 40.6071C12.3667 40.7853 12.0728 40.917 11.6842 40.9886C11.3407 41.0526 10.8728 41.0876 10.2515 41.0898ZM7.98996 40.8514L10.0783 40.8583C10.7621 40.8583 11.2872 40.8302 11.644 40.7617C11.9873 40.6985 12.2405 40.5895 12.3977 40.4389C12.5543 40.2913 12.6681 40.0551 12.7361 39.745C12.8031 39.4436 12.7911 39.2205 12.707 39.0856C12.6177 38.9499 12.4208 38.8472 12.1163 38.784C11.7913 38.7185 11.2804 38.6814 10.5974 38.6799L8.46251 38.6753L7.98996 40.8514Z" fill="#F8FBFF"/>
<path d="M23.695 43.3839C23.5394 44.117 23.2364 44.7498 22.7951 45.2982C22.3503 45.8456 21.7938 46.2646 21.1258 46.5577C20.4558 46.8523 19.7207 46.9984 18.9138 46.9954C18.1088 46.9894 17.4355 46.8418 16.8968 46.5418C16.3538 46.2479 15.9817 45.8213 15.7738 45.2738C15.5686 44.7286 15.544 44.0889 15.7029 43.3579L16.2638 40.7558C16.4213 40.0286 16.7226 39.389 17.1676 38.8429C17.6119 38.2969 18.1674 37.8766 18.8346 37.5834C19.5032 37.291 20.2412 37.1447 21.046 37.1477C21.8519 37.1486 22.5243 37.3003 23.0669 37.5964C23.6043 37.8955 23.9812 38.3197 24.186 38.8674C24.3935 39.4126 24.4193 40.0522 24.2593 40.784L23.695 43.3839ZM20.7763 38.389C19.8979 38.3852 19.1857 38.5923 18.6345 39.002C18.0859 39.4147 17.7278 40.0179 17.5548 40.8053L17.0103 43.3204C16.8418 44.108 16.9418 44.7079 17.3103 45.1252C17.6797 45.5426 18.3048 45.7497 19.1842 45.7519C20.0612 45.7564 20.7732 45.5518 21.3253 45.1382C21.8732 44.7262 22.2336 44.1239 22.4035 43.3357L22.9487 40.8228C23.1134 40.0636 23.0203 39.4611 22.6738 39.018C22.2984 38.6007 21.6671 38.3915 20.7763 38.389Z" fill="#F8FBFF"/>
<path d="M18.9692 47.1109C18.9517 47.1109 18.9311 47.1095 18.9134 47.1095C18.09 47.1064 17.3924 46.9493 16.8391 46.6442C16.2756 46.3333 15.8811 45.8866 15.665 45.3153C15.4529 44.7472 15.4246 44.0809 15.5864 43.3345L16.1496 40.7334C16.3123 39.9886 16.6246 39.3283 17.0779 38.7702C17.5289 38.2112 18.1053 37.7766 18.7882 37.4785C19.4684 37.1764 20.2287 37.0354 21.0455 37.0309C21.8683 37.0325 22.5643 37.1878 23.1192 37.4955C23.6832 37.8054 24.0777 38.2525 24.2946 38.825C24.5075 39.3925 24.5342 40.0556 24.3723 40.8071L23.8093 43.407C23.6464 44.1532 23.3352 44.8128 22.8831 45.3693C22.4276 45.9276 21.8536 46.3653 21.1713 46.6637C20.507 46.9564 19.7646 47.1064 18.9692 47.1109ZM20.9921 37.2638C20.2279 37.2662 19.5165 37.4108 18.8813 37.6898C18.2319 37.976 17.6868 38.3864 17.2556 38.9165C16.8244 39.4449 16.5298 40.073 16.3773 40.7807L15.8139 43.3825C15.662 44.0853 15.684 44.7077 15.8834 45.2337C16.0803 45.7516 16.4382 46.159 16.9519 46.4431C17.4718 46.7295 18.1305 46.8735 18.9134 46.8771C19.7013 46.8795 20.4271 46.7355 21.078 46.4523C21.7269 46.1668 22.2725 45.7531 22.7016 45.2268C23.1313 44.6969 23.4283 44.0688 23.581 43.3582L24.1457 40.7583C24.2975 40.0511 24.2753 39.4294 24.0761 38.9088C23.8792 38.3864 23.5222 37.9799 23.0076 37.6988C22.4873 37.4123 21.8278 37.2662 21.0455 37.2638H20.9921ZM19.2272 45.8668H19.1807C18.2718 45.8644 17.613 45.6399 17.2228 45.2013C16.8283 44.7601 16.7206 44.1159 16.8978 43.2929L17.4419 40.7807C17.6174 39.9667 17.9984 39.3399 18.567 38.9096C19.1234 38.4915 19.8525 38.2766 20.7278 38.2744H20.7752C21.6955 38.2766 22.3627 38.4969 22.7597 38.9384C23.1313 39.4145 23.2344 40.0556 23.0626 40.846L22.5163 43.3582C22.3415 44.173 21.9643 44.7997 21.3942 45.2316C20.8376 45.6489 20.1088 45.8622 19.2272 45.8668ZM20.7302 38.5059C19.9036 38.5082 19.2219 38.7071 18.7051 39.093C18.1816 39.4883 17.832 40.073 17.6702 40.8309L17.1268 43.3416C16.9633 44.0899 17.0557 44.6619 17.3976 45.049C17.7417 45.435 18.3448 45.6336 19.1822 45.6375C20.0309 45.6291 20.7278 45.4417 21.2559 45.0457C21.7765 44.652 22.1276 44.0688 22.2911 43.3112L22.8351 40.7957C22.9899 40.0777 22.9047 39.5021 22.5803 39.0893C22.2346 38.7047 21.6255 38.5059 20.7752 38.5059H20.7302Z" fill="#F8FBFF"/>
<path d="M30.6046 41.3352C31.1837 41.3384 31.6684 41.2205 32.061 40.9775C32.4562 40.74 32.6951 40.4207 32.7806 40.0278C32.8753 39.5917 32.7653 39.2403 32.4592 38.9679C32.1523 38.696 31.7136 38.5574 31.1441 38.5574L28.3109 38.546C28.0621 38.546 27.888 38.5858 27.7949 38.6631C27.7019 38.7425 27.6241 38.9148 27.5666 39.181L27.5102 39.4477C27.3997 39.9524 27.1293 40.2008 26.6958 40.1964C26.2607 40.1964 26.1005 39.9449 26.2096 39.4438C26.3807 38.6541 26.6355 38.1006 26.9721 37.78C27.3088 37.4609 27.8069 37.304 28.4712 37.3056L31.5203 37.3147C32.1424 37.3169 32.6653 37.4259 33.0942 37.6467C33.5201 37.8622 33.8271 38.1706 34.0033 38.5658C34.1818 38.9604 34.2142 39.4127 34.1032 39.9252C33.9163 40.794 33.4383 41.4794 32.6675 41.9797C33.2066 42.5431 33.3804 43.2696 33.1866 44.156C33.0752 44.6777 32.8393 45.1468 32.4806 45.5663C32.1204 45.9851 31.6737 46.3103 31.1441 46.5441C30.6127 46.7817 30.0465 46.8958 29.449 46.8958L26.3966 46.8844C25.7347 46.8844 25.3051 46.7209 25.106 46.3994C24.9068 46.0788 24.8914 45.5251 25.0632 44.7347C25.1715 44.2321 25.4418 43.9816 25.8769 43.9839C26.3096 43.9839 26.4735 44.2366 26.3637 44.7409L26.3042 45.0074C26.2502 45.2738 26.2508 45.446 26.3096 45.5251C26.3699 45.6029 26.5235 45.6424 26.7723 45.6448L29.6084 45.6538C30.165 45.6553 30.6655 45.5007 31.1053 45.1926C31.5434 44.8847 31.812 44.5003 31.9104 44.0471C32.0034 43.6146 31.9036 43.2628 31.6119 42.99C31.3205 42.717 30.8938 42.5805 30.3343 42.5775L29.0038 42.5728C28.4673 42.5712 28.2446 42.3664 28.332 41.9491C28.423 41.5343 28.7353 41.3292 29.2726 41.3307L30.6046 41.3352Z" fill="#F8FBFF"/>
<path d="M29.4843 47.0109H29.4469L26.3953 46.9993C25.6938 46.9978 25.2282 46.819 25.0069 46.461C24.7894 46.1116 24.7696 45.5397 24.949 44.7118C25.0994 44.0122 25.5459 43.8742 25.8765 43.8676C26.1114 43.8706 26.2822 43.9374 26.3901 44.0706C26.515 44.226 26.5435 44.4553 26.4787 44.7627L26.4205 45.0309C26.3482 45.3629 26.3923 45.4413 26.4016 45.4552C26.4129 45.4657 26.4731 45.5269 26.7724 45.529L29.6086 45.5374H29.6316C30.153 45.5336 30.6263 45.3865 31.0368 45.0963C31.4551 44.8025 31.7032 44.4507 31.7947 44.0242C31.8826 43.6306 31.7947 43.3198 31.5337 43.0708C31.2621 42.8219 30.861 42.6932 30.3353 42.6932L29.0034 42.6908C28.6629 42.687 28.435 42.6085 28.3057 42.4487C28.2013 42.32 28.1723 42.1425 28.2187 41.9272C28.2892 41.6018 28.5248 41.2204 29.2553 41.2159H29.2728L30.6041 41.2204C31.1727 41.2204 31.6291 41.1063 32.0015 40.8794C32.3694 40.6546 32.5871 40.3682 32.6655 40.002C32.751 39.609 32.6595 39.2991 32.3823 39.0548C32.0969 38.8034 31.681 38.6749 31.1437 38.6733L28.3075 38.6633C28.0264 38.6587 27.9189 38.7118 27.8694 38.7531C27.8197 38.7941 27.7432 38.9085 27.6807 39.2048L27.6237 39.4689C27.473 40.1634 27.0425 40.3118 26.7067 40.3166H26.6945C26.461 40.3118 26.287 40.2435 26.1808 40.1133C26.0559 39.9553 26.0259 39.731 26.0929 39.4186C26.2693 38.6115 26.5375 38.0305 26.8922 37.6946C27.2511 37.3581 27.7846 37.2012 28.469 37.188L31.5229 37.1991C32.1589 37.2012 32.703 37.317 33.1487 37.5409C33.5968 37.7708 33.9206 38.0981 34.109 38.5178C34.2975 38.9321 34.3317 39.4165 34.2167 39.9494C34.0334 40.8031 33.5708 41.4907 32.8419 41.9994C33.3364 42.5774 33.49 43.3093 33.3022 44.1796C33.1831 44.7211 32.9374 45.2123 32.5665 45.6425C32.1977 46.0703 31.7359 46.4107 31.1887 46.6507C30.659 46.8845 30.0857 47.0072 29.4843 47.0109ZM25.8681 44.099C25.4932 44.102 25.2725 44.3107 25.1756 44.7606C25.0124 45.5138 25.0214 46.0461 25.2041 46.3409C25.3795 46.6226 25.7802 46.7687 26.3953 46.7717L29.4501 46.7795C30.0416 46.7864 30.5858 46.6684 31.0971 46.4413C31.6093 46.2121 32.0444 45.8937 32.3917 45.4925C32.7381 45.0911 32.9664 44.6319 33.0739 44.1316C33.261 43.2764 33.0991 42.5995 32.5833 42.0582L32.4872 41.9577L32.6031 41.8814C33.344 41.4009 33.8112 40.7354 33.9905 39.9014C34.0959 39.4165 34.064 38.9823 33.8966 38.6136C33.7312 38.2445 33.4411 37.952 33.0418 37.7487C32.6328 37.538 32.123 37.4326 31.5199 37.4282L28.4684 37.4197H28.438C27.8256 37.4233 27.3593 37.5733 27.0518 37.8622C26.7313 38.1645 26.4862 38.7052 26.3212 39.4674C26.2702 39.7027 26.2822 39.8688 26.3625 39.9693C26.422 40.0439 26.5359 40.0805 26.6945 40.0805C27.0677 40.0954 27.2975 39.8748 27.3968 39.4231L27.4556 39.1553C27.5173 38.8629 27.6036 38.6733 27.7221 38.5741C27.838 38.4781 28.0432 38.4388 28.3105 38.4295L31.1437 38.4388C31.739 38.4411 32.207 38.5896 32.5367 38.8818C32.8749 39.1833 32.9968 39.5757 32.8939 40.0491C32.8008 40.4748 32.5428 40.8207 32.1245 41.0757C31.7129 41.3261 31.1988 41.4512 30.6041 41.4512L29.2728 41.4467C28.7844 41.4512 28.5233 41.6147 28.444 41.9727C28.4165 42.1197 28.4255 42.2331 28.4875 42.3049C28.5668 42.4031 28.7438 42.4579 29.0034 42.4579L30.3368 42.4639C30.9201 42.4639 31.3771 42.6131 31.6909 42.9025C32.0138 43.2063 32.1252 43.5979 32.0222 44.0706C31.9193 44.5511 31.6323 44.9618 31.1697 45.286C30.72 45.6051 30.2011 45.7667 29.6316 45.7689H29.6086L26.7724 45.7605C26.4793 45.7605 26.3031 45.7078 26.2183 45.5946C26.1328 45.4811 26.1252 45.2953 26.1933 44.9837L26.2488 44.714C26.3016 44.4789 26.2887 44.3107 26.2092 44.2146C26.1481 44.1392 26.035 44.102 25.8756 44.099H25.8687H25.8681Z" fill="#F8FBFF"/>
<path d="M40.3024 42.5951C40.1277 42.733 39.9468 42.8022 39.7605 42.8022C39.566 42.7983 39.4097 42.7307 39.295 42.5915L37.634 39.3769L36.1426 46.2664C36.035 46.7675 35.7616 47.0201 35.329 47.018C34.8963 47.0157 34.7282 46.7795 34.8314 46.3059L36.6411 37.9538C36.7442 37.4701 37.0036 37.2273 37.4189 37.2311C37.6753 37.2311 37.8692 37.3605 38.0003 37.6155L40.0377 41.456L43.7517 37.6186C44.0005 37.3758 44.2441 37.2541 44.4836 37.2541C44.9066 37.2541 45.0654 37.4961 44.9615 37.9789L43.1517 46.334C43.0496 46.8053 42.7823 47.0439 42.3472 47.0399C41.9137 47.0399 41.7519 46.7864 41.8603 46.2844L43.3509 39.3955L40.3024 42.5951Z" fill="#F8FBFF"/>
<path d="M42.3586 47.1554H42.3481C42.1122 47.1554 41.939 47.0875 41.832 46.9569C41.7077 46.7998 41.6778 46.572 41.7452 46.26L43.1501 39.7758L40.3743 42.6878C40.1804 42.8399 39.9765 42.9162 39.7697 42.9162H39.7606C39.53 42.9162 39.3407 42.8309 39.2056 42.6657L37.6799 39.7164L36.2555 46.2912C36.1037 46.9893 35.6746 47.1472 35.3267 47.1363C35.0855 47.1363 34.913 47.0641 34.8032 46.93C34.6856 46.7846 34.655 46.5682 34.7168 46.2804L36.5265 37.9291C36.6708 37.2604 37.0838 37.1158 37.4059 37.1137H37.4173C37.721 37.1158 37.9516 37.2673 38.1041 37.5634L40.0635 41.2614L43.6671 37.5415C43.938 37.2727 44.2096 37.1386 44.4769 37.1363H44.4821C44.7134 37.1386 44.8835 37.2042 44.989 37.3365C45.1088 37.483 45.1379 37.7074 45.075 38.002L43.2654 46.3567C43.1532 46.8783 42.8387 47.1533 42.3586 47.1554ZM43.5508 39.0174L41.9748 46.311C41.9221 46.5441 41.9346 46.7145 42.012 46.8082C42.0753 46.8851 42.1869 46.924 42.3481 46.9255C42.7364 46.93 42.9481 46.7313 43.0396 46.3086L44.8472 37.9541C44.8944 37.7319 44.8827 37.5741 44.8058 37.4814C44.7509 37.4068 44.6387 37.367 44.4821 37.367H44.4775C44.2738 37.3694 44.0562 37.4814 43.834 37.7037L40.0085 41.6505L37.8974 37.6708C37.786 37.4502 37.6309 37.346 37.4151 37.346C37.0716 37.3413 36.848 37.5445 36.7547 37.9765L34.9451 46.3283C34.8993 46.5417 34.913 46.6947 34.9841 46.7869C35.0466 46.8632 35.162 46.9025 35.3289 46.9025C35.7061 46.9025 35.9329 46.6947 36.0283 46.2411L37.5889 39.0378L39.3971 42.5363C39.4759 42.6307 39.6004 42.6832 39.7606 42.6878H39.7667C39.9222 42.6832 40.0743 42.6261 40.2254 42.5102L43.5508 39.0174Z" fill="#F8FBFF"/>
<path d="M53.8795 43.4833C53.7209 44.2134 53.4185 44.8508 52.9759 45.3961C52.5324 45.942 51.9759 46.3623 51.308 46.6554C50.6394 46.9502 49.9015 47.094 49.0977 47.094C48.2894 47.0895 47.6185 46.941 47.0772 46.6419C46.5353 46.3434 46.1636 45.9192 45.9568 45.3739C45.7484 44.8265 45.7255 44.1866 45.8833 43.4558L46.4444 40.8551C46.6047 40.1264 46.9064 39.4869 47.3505 38.9429C47.7932 38.3957 48.3467 37.9766 49.0174 37.6814C49.6862 37.3889 50.4219 37.2426 51.2294 37.2458C52.0323 37.2473 52.7063 37.4003 53.2469 37.6943C53.7849 37.9943 54.1611 38.4146 54.3695 38.9645C54.574 39.5133 54.5992 40.1509 54.4405 40.8795L53.8795 43.4833ZM50.9593 38.487C50.0799 38.4854 49.3664 38.6872 48.8184 39.1031C48.2678 39.5133 47.9086 40.1149 47.7383 40.9008L47.1918 43.4183C47.023 44.2059 47.1222 44.8089 47.4948 45.2232C47.8634 45.6405 48.4856 45.8474 49.3648 45.8492C50.2433 45.8536 50.9548 45.6495 51.5066 45.2367C52.0539 44.822 52.4155 44.224 52.5865 43.4337L53.1293 40.9215C53.2943 40.1616 53.2025 39.5614 52.856 39.1159C52.4782 38.6993 51.8484 38.4885 50.9593 38.487Z" fill="#F8FBFF"/>
<path d="M49.1482 47.2075H49.0969C48.2738 47.2029 47.5756 47.0506 47.02 46.7459C46.4573 46.4322 46.0637 45.9873 45.8484 45.4141C45.634 44.8503 45.607 44.1795 45.769 43.4334L46.3331 40.8314C46.4942 40.0864 46.8086 39.4278 47.2573 38.8691C47.71 38.3123 48.2871 37.8759 48.9708 37.5774C49.6508 37.2773 50.4105 37.1335 51.23 37.1296C52.0515 37.132 52.7483 37.2886 53.3033 37.5942C53.865 37.9017 54.2589 38.3519 54.4756 38.923C54.6917 39.4912 54.7175 40.1567 54.5558 40.9058L53.9908 43.508C53.8299 44.2519 53.5184 44.9108 53.066 45.468C52.6123 46.0263 52.0368 46.4634 51.3545 46.7625C50.6883 47.0551 49.9448 47.2029 49.1482 47.2075ZM51.173 37.3604C50.4096 37.3627 49.6982 37.5074 49.0641 37.7884C48.4161 38.0747 47.8687 38.4874 47.4414 39.0174C47.0093 39.5436 46.7126 40.1725 46.5596 40.8793L45.9973 43.4814C45.8437 44.1864 45.8683 44.8093 46.0652 45.3323C46.2613 45.8526 46.6208 46.2585 47.1313 46.5417C47.6542 46.8282 48.3129 46.9737 49.0978 46.9782C49.8708 46.9675 50.6104 46.8342 51.2614 46.551C51.908 46.2645 52.4536 45.8527 52.8857 45.3218C53.3162 44.7935 53.6115 44.1667 53.7649 43.4599L54.3283 40.8578C54.4801 40.1521 54.4573 39.5331 54.2589 39.0053C54.0618 38.4874 53.7045 38.0815 53.1887 37.7975C52.6705 37.5118 52.0104 37.3627 51.2286 37.3604H51.173ZM49.4104 45.9654H49.3648C48.4556 45.9639 47.7962 45.7406 47.407 45.2999C47.0116 44.8564 46.9017 44.2148 47.0818 43.3946L47.6245 40.8793C47.8 40.0653 48.1784 39.4364 48.7488 39.0084C49.315 38.5835 50.0669 38.3755 50.9601 38.3732C51.8775 38.3732 52.546 38.5986 52.9406 39.0372C53.3162 39.5146 53.4138 40.1567 53.2445 40.9425L52.6987 43.4599C52.5247 44.2725 52.1454 44.9007 51.5783 45.3279C51.0166 45.7467 50.2914 45.961 49.4104 45.9654ZM50.9158 38.603C50.0874 38.6069 49.4053 38.8057 48.8877 39.1948C48.3648 39.587 48.0146 40.1725 47.8513 40.9282L47.307 43.4425C47.1459 44.1864 47.2377 44.7606 47.5795 45.147C47.9246 45.5338 48.5261 45.7301 49.3654 45.7362C50.2158 45.7323 50.9104 45.5404 51.4355 45.142C51.9623 44.7477 52.3087 44.1667 52.4719 43.4119L53.0185 40.8968C53.1704 40.1771 53.0873 39.6023 52.7636 39.188C52.4178 38.8034 51.8094 38.6045 50.9601 38.603H50.9158Z" fill="#F8FBFF"/>
<path d="M61.8565 43.1543L61.149 46.4217C61.1053 46.6183 61.0062 46.782 60.8414 46.9116C60.6818 47.0371 60.4949 47.1011 60.2879 47.1011C60.0919 47.0989 59.949 47.0356 59.8591 46.9038C59.7673 46.7775 59.7423 46.6136 59.7834 46.415L60.4917 43.1474H60.3863C59.9293 43.1474 59.5186 43.2616 59.1492 43.4863C58.7807 43.7085 58.4752 44.0399 58.2394 44.4716C58.089 44.7299 57.8761 45.1137 57.6006 45.6246C57.3356 46.0882 57.0059 46.4455 56.6158 46.7036C56.2228 46.9588 55.7969 47.0828 55.3304 47.0828C55.0832 47.0828 54.8992 47.0266 54.7788 46.9116C54.6588 46.7994 54.6205 46.6488 54.6595 46.4614C54.7504 46.0463 55.0621 45.8384 55.6008 45.8408C55.6496 45.8384 55.7145 45.8058 55.7855 45.7388C55.8571 45.6689 55.9283 45.5702 55.9938 45.4418C56.2482 45.0008 56.4382 44.6476 56.5663 44.3785C56.7724 43.9578 57.086 43.5381 57.5052 43.1229C57.9257 42.7111 58.3798 42.4071 58.8666 42.2114C58.6867 41.9465 58.4882 41.5193 58.2745 40.9383C58.0378 40.3162 57.831 39.8318 57.6585 39.4869C57.4922 39.1618 57.2958 38.9865 57.0724 38.9645C56.8258 38.9538 56.6473 38.8942 56.531 38.7862C56.4144 38.679 56.3776 38.5257 56.4211 38.3269C56.5098 37.9212 56.7991 37.721 57.2958 37.7225C57.699 37.7255 58.0683 37.854 58.4059 38.1116C58.7416 38.3712 59.0279 38.7466 59.2623 39.237C59.4239 39.5935 59.5989 40.003 59.7874 40.4692C59.9574 40.923 60.114 41.2696 60.2621 41.5079C60.3887 41.7743 60.5252 41.9067 60.6665 41.9067H60.7596L61.5039 38.4778C61.555 38.2517 61.6527 38.0743 61.8067 37.9456C61.9588 37.8186 62.1382 37.7513 62.345 37.7528C62.796 37.7552 62.9715 37.998 62.8677 38.48L62.1238 41.9114H62.2184C62.3442 41.9114 62.5419 41.7806 62.8174 41.5145C63.0267 41.3068 63.3379 40.9619 63.754 40.4823C64.2135 39.9324 64.6119 39.4777 64.9462 39.1244C65.2813 38.7703 65.647 38.4604 66.0468 38.197C66.5133 37.9022 66.9415 37.7552 67.3375 37.7552C67.5833 37.7581 67.7664 37.8136 67.8861 37.9288C68.0085 38.0414 68.0481 38.1923 68.0085 38.3781C67.9671 38.5677 67.8672 38.7137 67.7093 38.8236C67.5518 38.9301 67.3421 38.9909 67.0843 38.9972C66.8407 39.017 66.5652 39.1945 66.2536 39.5271C65.9268 39.8507 65.5133 40.3291 65.0164 40.9597C64.5645 41.51 64.1837 41.9336 63.8723 42.2282C64.1616 42.3661 64.415 42.5556 64.6242 42.791C64.8372 43.0317 64.9807 43.2874 65.056 43.5615C65.2279 44.1063 65.3173 44.6446 65.3257 45.1775C65.3194 45.4068 65.3369 45.5768 65.3827 45.6968C65.4308 45.812 65.4956 45.8713 65.5781 45.8713C65.8155 45.8759 65.9988 45.9307 66.1206 46.0463C66.2484 46.159 66.2904 46.3105 66.2499 46.4958C66.1597 46.9116 65.8353 47.1155 65.2789 47.1155C64.8141 47.114 64.4424 46.9847 64.16 46.7266C63.8798 46.4698 63.7181 46.1096 63.6731 45.645C63.6511 45.4676 63.6356 45.3343 63.6356 45.2448C63.5777 44.8021 63.5151 44.4548 63.4507 44.2036C63.3868 43.9507 63.268 43.7261 63.0937 43.5274C62.8374 43.2828 62.4611 43.1558 61.9664 43.1543H61.8565Z" fill="#F8FBFF"/>
<path d="M65.2974 47.2314H65.2776C64.7859 47.2314 64.3837 47.0876 64.0816 46.8096C63.7821 46.5395 63.6044 46.1465 63.558 45.6552C63.5319 45.4738 63.522 45.3393 63.5205 45.2448C63.4619 44.8215 63.4014 44.4749 63.3404 44.2318C63.2801 43.9989 63.1666 43.7872 63.0076 43.6052C62.78 43.383 62.4283 43.2717 61.9635 43.2694H61.9512L61.2613 46.4457C61.2133 46.6682 61.0963 46.856 60.9139 46.9991C60.7339 47.1425 60.5247 47.2119 60.2972 47.2155H60.288C60.053 47.2119 59.8768 47.1326 59.7614 46.9733C59.6515 46.8167 59.6225 46.6224 59.672 46.3909L60.3483 43.2657C59.9324 43.2694 59.5508 43.3768 59.2098 43.584C58.8591 43.8001 58.5639 44.1163 58.3371 44.529C58.1837 44.7976 57.9694 45.1838 57.7036 45.6797C57.4267 46.1623 57.0816 46.5395 56.678 46.7997C56.2756 47.0634 55.8276 47.1966 55.3491 47.2011H55.3299C55.052 47.1966 54.8399 47.1278 54.6995 46.9946C54.595 46.8957 54.4866 46.7185 54.5468 46.4351C54.6155 46.1136 54.8528 45.7292 55.5795 45.7246H55.6002C55.6002 45.7246 55.6314 45.7237 55.7053 45.6552C55.7665 45.5965 55.8316 45.5044 55.8931 45.3864C56.152 44.9347 56.3366 44.5876 56.4635 44.3264C56.6748 43.8953 56.9961 43.4613 57.4228 43.0425C57.8158 42.6556 58.244 42.3611 58.6952 42.1584C58.5309 41.8835 58.358 41.4953 58.1657 40.9751C57.932 40.3635 57.7259 39.8794 57.5533 39.5351C57.4084 39.251 57.2419 39.0955 57.0618 39.0827C56.7947 39.0699 56.5879 38.9973 56.4527 38.8712C56.3512 38.7751 56.2427 38.6 56.3084 38.3006C56.3732 37.9868 56.6015 37.6106 57.2779 37.607H57.2944C57.7226 37.607 58.1213 37.7471 58.4754 38.0213C58.8266 38.2884 59.1264 38.6807 59.3662 39.1877C59.5247 39.5426 59.7026 39.9601 59.8919 40.4252C60.0614 40.8769 60.218 41.2194 60.3591 41.4465C60.4668 41.6696 60.5743 41.7899 60.6675 41.7914L61.3909 38.4515C61.4465 38.2017 61.5614 37.9998 61.7321 37.8551C61.9047 37.7097 62.1039 37.6291 62.3443 37.6375C62.5962 37.6396 62.7841 37.7097 62.8948 37.8498C63.0137 37.9998 63.0436 38.2183 62.9824 38.5063L62.2711 41.7854C62.3428 41.757 62.4825 41.6764 62.7343 41.4311C62.9413 41.2308 63.2526 40.8859 63.6641 40.4054C64.1236 39.857 64.5273 39.4019 64.8608 39.0454C65.2014 38.6868 65.5783 38.3683 65.982 38.098C66.4676 37.7919 66.9284 37.6375 67.3377 37.6396C67.6132 37.6396 67.8269 37.7097 67.9673 37.8429C68.1185 37.9868 68.1688 38.1764 68.12 38.4035C68.0741 38.6197 67.9582 38.7925 67.775 38.9214C67.5979 39.0385 67.3674 39.104 67.0859 39.1155C66.8811 39.1298 66.6293 39.2944 66.3415 39.6058C66.0133 39.9273 65.6006 40.4054 65.1051 41.0313C64.7083 41.5187 64.3609 41.9096 64.0677 42.2003C64.3107 42.3351 64.5265 42.5078 64.712 42.7149C64.9343 42.9657 65.0891 43.2414 65.1669 43.5336C65.3409 44.0812 65.4357 44.638 65.4417 45.1747C65.4357 45.3911 65.4522 45.5508 65.4921 45.6537C65.5104 45.6986 65.5407 45.7571 65.5783 45.7571C65.8455 45.7603 66.0538 45.825 66.2003 45.959C66.3554 46.1031 66.412 46.2957 66.3631 46.5216C66.2927 46.8424 66.0507 47.2269 65.2974 47.2314ZM61.7643 43.0379H61.9635C62.4901 43.0401 62.8969 43.178 63.1741 43.4454C63.3665 43.6624 63.4944 43.9043 63.564 44.1725C63.6288 44.4285 63.6923 44.7818 63.7518 45.2317C63.7542 45.3277 63.7671 45.4519 63.7886 45.6294C63.8319 46.0725 63.9779 46.4023 64.2396 46.6422C64.4981 46.8775 64.8457 46.9976 65.2776 46.9991C65.776 47.0039 66.0599 46.8281 66.1356 46.4722C66.1675 46.3253 66.1378 46.2165 66.0432 46.1297C65.9418 46.0351 65.7835 45.9893 65.5783 45.9893C65.4852 45.9893 65.3577 45.9459 65.2769 45.7382C65.2226 45.6049 65.2014 45.4176 65.2089 45.1732C65.2014 44.6622 65.1119 44.1315 64.9448 43.5977C64.8731 43.3373 64.7363 43.0918 64.538 42.8696C64.3365 42.6458 64.096 42.4638 63.822 42.332L63.6702 42.2589L63.7923 42.1447C64.0984 41.8546 64.48 41.4311 64.9226 40.8859C65.4234 40.2548 65.844 39.7704 66.1738 39.4468C66.5033 39.0918 66.7973 38.9036 67.0734 38.8817C67.3131 38.8756 67.504 38.8208 67.6429 38.7271C67.7779 38.6373 67.8583 38.5153 67.8957 38.3554C67.9261 38.2048 67.8979 38.098 67.8086 38.0114C67.7095 37.9192 67.5505 37.8734 67.3346 37.8734H67.3224C66.9584 37.8758 66.5483 38.0152 66.1087 38.2946C65.721 38.5526 65.3577 38.8572 65.0303 39.2046C64.699 39.5564 64.3006 40.0111 63.8427 40.5563C63.4184 41.0473 63.1106 41.3878 62.8978 41.598C62.5948 41.8896 62.3794 42.0252 62.2215 42.0273H62.2176L61.9818 42.0252L62.7543 38.456C62.8009 38.2419 62.7886 38.0866 62.7121 37.9937C62.6467 37.9131 62.5215 37.8713 62.3428 37.8713C62.1651 37.8689 62.0115 37.9207 61.8797 38.0348C61.7498 38.1437 61.6605 38.2991 61.6199 38.5017L60.8566 42.0207H60.6675C60.4743 42.0207 60.305 41.8698 60.156 41.5561C60.0125 41.3223 59.8515 40.9751 59.6789 40.5083C59.4881 40.0489 59.3149 39.6372 59.1568 39.2852C58.9318 38.8139 58.6563 38.45 58.3356 38.2033C58.0159 37.9581 57.6769 37.8408 57.2944 37.8408H57.2779C56.8467 37.8408 56.609 38.0045 56.5351 38.3517C56.5007 38.5063 56.5251 38.6219 56.609 38.7005C56.706 38.7903 56.8593 38.8398 57.077 38.8488C57.3489 38.8756 57.5761 39.0699 57.7624 39.4345C57.9364 39.7833 58.1447 40.2743 58.3821 40.8966C58.5923 41.4708 58.7883 41.8896 58.9606 42.1447L59.0448 42.2659L58.9095 42.3183C58.4403 42.5078 57.9938 42.8048 57.5869 43.2062C57.1779 43.6076 56.8694 44.018 56.6733 44.4285C56.5435 44.6949 56.3551 45.0443 56.0978 45.4983C56.0239 45.6354 55.9459 45.7466 55.8634 45.8204C55.762 45.9187 55.6717 45.9546 55.5795 45.959C55.1138 45.959 54.8498 46.1312 54.7745 46.4829C54.7421 46.6308 54.7664 46.7419 54.8597 46.828C54.9558 46.9215 55.1155 46.9667 55.3321 46.9667H55.3491C55.7797 46.9667 56.1863 46.8425 56.5519 46.6055C56.9244 46.362 57.2449 46.0132 57.4999 45.5699C57.767 45.0718 57.9808 44.6835 58.1348 44.4155C58.3806 43.9678 58.7013 43.6228 59.0883 43.3851C59.4752 43.1499 59.9063 43.0335 60.3858 43.0335H60.6387L59.8982 46.441C59.8637 46.6055 59.8799 46.7359 59.9537 46.8377C60.0226 46.9338 60.131 46.9826 60.2896 46.9826H60.2972C60.4752 46.9826 60.6292 46.9285 60.7704 46.8167C60.9116 46.7084 60.9994 46.5697 61.036 46.3946L61.7643 43.0379Z" fill="#F8FBFF"/>
<path d="M69.304 46.4164C69.2025 46.8909 68.9352 47.127 68.5025 47.127C68.0659 47.1247 67.902 46.8843 68.0042 46.4149L69.8124 38.0606C69.9176 37.5772 70.1762 37.3363 70.5885 37.3363C71.0443 37.338 71.2198 37.5826 71.1145 38.063L70.4246 41.2438L75.8178 41.2635L76.5055 38.0811C76.6114 37.5984 76.8803 37.3578 77.3139 37.3602C77.7505 37.3602 77.9121 37.6054 77.8083 38.0859L75.9996 46.4409C75.8964 46.9147 75.6278 47.1486 75.1943 47.1471C74.7615 47.1471 74.5951 46.9085 74.6965 46.4365L75.5513 42.5032L70.1566 42.4843L69.304 46.4164Z" fill="#F8FBFF"/>
<path d="M75.205 47.2626C75.2004 47.2626 75.1974 47.2626 75.1936 47.2648C74.9532 47.2626 74.7768 47.195 74.6685 47.0615C74.5509 46.9154 74.5212 46.6975 74.5838 46.4112L75.4064 42.6188L70.2499 42.6022L69.4187 46.4439C69.3042 46.9626 68.9914 47.2388 68.5096 47.2437H68.5027C68.2615 47.2405 68.0823 47.1749 67.9761 47.0403C67.8564 46.8918 67.8294 46.6756 67.8906 46.39L69.6994 38.0355C69.8463 37.3608 70.2635 37.2146 70.5872 37.223C70.842 37.223 71.0283 37.2955 71.1398 37.4356C71.2605 37.5832 71.2902 37.8038 71.2292 38.0903L70.5689 41.1264L75.7249 41.1464L76.3935 38.0592C76.5369 37.3891 76.9666 37.2473 77.3033 37.2458H77.3108C77.5513 37.2458 77.7254 37.315 77.8359 37.4454C77.9558 37.597 77.9841 37.8193 77.9198 38.1116L76.1096 46.4652C75.9997 46.9876 75.6874 47.2626 75.205 47.2626ZM70.0621 42.3684L75.6926 42.3882L74.8112 46.4616C74.7648 46.6732 74.7768 46.8262 74.8485 46.9177C74.9118 46.9921 75.0255 47.031 75.1936 47.031H75.2043C75.5782 47.031 75.7949 46.8331 75.8858 46.4173L77.6948 38.0636C77.7413 37.8436 77.7275 37.6844 77.6543 37.5946C77.5948 37.5152 77.4788 37.4764 77.3132 37.4742C76.9291 37.4858 76.7139 37.6754 76.6194 38.1079L75.9095 41.377L70.2811 41.3578L70.9988 38.04C71.0459 37.8253 71.0328 37.6707 70.9589 37.5787C70.8932 37.4963 70.769 37.4545 70.5872 37.4529H70.5811C70.2253 37.4569 70.0201 37.6577 69.9255 38.0856L68.1172 46.4403C68.0707 46.6511 68.0823 46.8041 68.1546 46.8932C68.2171 46.9702 68.334 47.0114 68.5027 47.0114H68.5096C68.8844 47.0091 69.1012 46.8126 69.1919 46.3938L70.0621 42.3684Z" fill="#F8FBFF"/>
<path d="M86.7246 43.5886C86.5682 44.3194 86.2675 44.957 85.8225 45.503C85.3797 46.048 84.8225 46.4677 84.1555 46.7642C83.4854 47.0572 82.7488 47.2028 81.9435 47.201C81.1369 47.1965 80.4651 47.0456 79.9265 46.7487C79.3829 46.4526 79.0104 46.026 78.8043 45.4787C78.5967 44.9333 78.5737 44.296 78.7302 43.5618L79.2928 40.962C79.4524 40.2332 79.7523 39.5937 80.1957 39.0498C80.64 38.504 81.1963 38.0828 81.8643 37.7904C82.5328 37.4957 83.2694 37.3472 84.0747 37.3518C84.8807 37.3533 85.5546 37.5071 86.0965 37.8033C86.6339 38.1005 87.0072 38.5244 87.2142 39.0713C87.423 39.6201 87.4468 40.2577 87.2887 40.9879L86.7246 43.5886ZM83.8059 38.5939C82.9276 38.5914 82.2154 38.7941 81.6672 39.209C81.1171 39.6216 80.7574 40.2248 80.586 41.0102L80.0408 43.5228C79.8692 44.3127 79.9684 44.9127 80.3417 45.33C80.7094 45.7449 81.3344 45.9545 82.2132 45.9592C83.0909 45.9592 83.8038 45.7563 84.3526 45.3438C84.9028 44.9288 85.2632 44.3308 85.4331 43.5405L85.9767 41.0283C86.1415 40.2706 86.05 39.6659 85.7035 39.2251C85.3272 38.8054 84.6946 38.5983 83.8059 38.5939Z" fill="#F8FBFF"/>
<path d="M81.9969 47.314H81.9444C81.1223 47.3125 80.4223 47.1571 79.8675 46.8495C79.3058 46.5387 78.9106 46.0924 78.6958 45.5212C78.4824 44.9542 78.4563 44.2861 78.6163 43.54L79.1812 40.938C79.3394 40.193 79.6515 39.5346 80.1072 38.9757C80.5621 38.4136 81.136 37.9825 81.8176 37.684C82.4956 37.3823 83.2572 37.2463 84.0769 37.2362C84.8958 37.2385 85.5952 37.3932 86.15 37.7007C86.7141 38.0123 87.1087 38.4584 87.3238 39.0281C87.5369 39.5978 87.5644 40.2632 87.4033 41.0104L86.8392 43.6122C86.6781 44.3555 86.366 45.0173 85.9133 45.5763C85.4601 46.1307 84.8846 46.5684 84.202 46.8692C83.5356 47.1617 82.7954 47.3095 81.9969 47.314ZM84.0235 37.467C83.2557 37.4709 82.5451 37.6154 81.9115 37.8926C81.2642 38.1768 80.7176 38.5919 80.2888 39.1218C79.8552 39.6502 79.5621 40.2792 79.4065 40.9859L78.8431 43.5879C78.6906 44.2931 78.7164 44.9152 78.9135 45.437C79.1081 45.9594 79.4667 46.3621 79.9812 46.6483C80.5018 46.9339 81.1613 47.0824 81.9466 47.0848C82.7228 47.0802 83.4579 46.9407 84.1088 46.6567C84.7569 46.3711 85.3029 45.9594 85.7308 45.4301C86.1638 44.9 86.4591 44.2717 86.6124 43.5658L87.1759 40.9616C87.3277 40.2587 87.3047 39.6373 87.1069 39.1119C86.9124 38.594 86.5523 38.1873 86.0393 37.904C85.5187 37.6154 84.8577 37.4709 84.0754 37.467H84.0235ZM82.2566 46.0742H82.213C81.3032 46.0696 80.6452 45.8451 80.2545 45.4065C79.8582 44.9632 79.7499 44.3235 79.9286 43.4981L80.4703 40.9859C80.6476 40.1719 81.0269 39.543 81.5964 39.1173C82.1544 38.6991 82.8803 38.4844 83.758 38.4774H83.8066C84.7256 38.4797 85.3927 38.7045 85.789 39.1437C86.1605 39.6211 86.2631 40.2609 86.0921 41.0514L85.5456 43.5658C85.3722 44.3792 84.9936 45.0075 84.4235 45.4347C83.8645 45.8532 83.1351 46.0675 82.2566 46.0742ZM83.7594 38.7096C82.9337 38.7159 82.2528 38.9125 81.7359 39.3014C81.2117 39.6936 80.8634 40.2761 80.6987 41.0338L80.1569 43.5469C79.9935 44.2956 80.085 44.8688 80.4253 45.2535C80.7727 45.6403 81.3749 45.8389 82.213 45.8404C83.0547 45.8367 83.758 45.6463 84.2837 45.2518C84.8088 44.8581 85.1577 44.2717 85.3194 43.5155L85.8637 41.0009C86.0203 40.2837 85.9355 39.7088 85.6102 39.2948C85.2654 38.9101 84.6554 38.7112 83.8066 38.7096H83.7594Z" fill="#F8FBFF"/>
<path d="M91.8874 47.101C90.8753 47.0964 90.1034 47.0027 89.5683 46.8237C89.0323 46.6438 88.678 46.3523 88.5072 45.9478C88.3377 45.5437 88.3302 44.9875 88.4842 44.2757L89.3405 40.3136C89.4924 39.6128 89.7336 39.0632 90.0623 38.6587C90.3929 38.256 90.8503 37.9651 91.4318 37.7816C92.0134 37.6002 92.7656 37.5128 93.683 37.518L96.1477 37.5241C96.7552 37.5289 97.1768 37.675 97.4073 37.972C97.6378 38.2681 97.686 38.7273 97.5511 39.3487C97.4314 39.8993 97.1545 40.1764 96.723 40.1741C96.5149 40.1741 96.3675 40.1043 96.2862 39.9672C96.2013 39.8271 96.1852 39.6343 96.2388 39.3885C96.2933 39.1416 96.288 38.9779 96.2227 38.8932C96.1593 38.8073 96.0066 38.7662 95.7689 38.7662L93.4141 38.76C92.6995 38.7578 92.1706 38.7944 91.824 38.8728C91.4756 38.9497 91.2165 39.1005 91.045 39.3227C90.8726 39.5415 90.7359 39.8855 90.6359 40.3462L89.7908 44.2519C89.6889 44.7234 89.68 45.0707 89.7595 45.286C89.8426 45.5048 90.0606 45.6539 90.4179 45.7317C90.7716 45.8125 91.3514 45.8533 92.1563 45.858L94.2315 45.8627C94.4718 45.8649 94.6389 45.8208 94.7407 45.7407C94.8426 45.6554 94.9185 45.4925 94.9703 45.2444C95.0257 44.9983 95.1231 44.8085 95.2669 44.6695C95.4107 44.5315 95.5849 44.463 95.7913 44.463C96.2236 44.475 96.38 44.7537 96.2594 45.3082C96.1289 45.9175 95.8833 46.3735 95.5259 46.6683C95.1668 46.9609 94.6835 47.1069 94.0743 47.1069L91.8874 47.101Z" fill="#F8FBFF"/>
<path d="M94.1082 47.2209H94.0743L91.8874 47.2164C90.869 47.2117 90.0749 47.1158 89.5308 46.9345C88.9656 46.7456 88.5864 46.428 88.4009 45.9942C88.2248 45.5682 88.2115 44.9836 88.3705 44.2525L89.2284 40.2905C89.3825 39.5762 89.6327 39.0018 89.9739 38.5856C90.3187 38.1659 90.7967 37.8604 91.3979 37.6732C91.9893 37.4875 92.7593 37.3938 93.683 37.4007L96.1477 37.4113C96.7918 37.4113 97.2447 37.5773 97.4976 37.9023C97.7504 38.2252 97.8058 38.7212 97.6637 39.3727C97.5011 40.1291 97.0661 40.2905 96.7293 40.2922H96.7204C96.4711 40.2905 96.2907 40.2007 96.1852 40.0286C96.0834 39.8648 96.0647 39.6424 96.1272 39.3667C96.1924 39.0721 96.1459 38.9829 96.1308 38.9649C96.1165 38.9455 96.0486 38.8826 95.769 38.8826L93.4141 38.8733C92.7156 38.8733 92.1894 38.9092 91.849 38.9853C91.5274 39.0568 91.2943 39.1922 91.137 39.3912C90.9762 39.596 90.8467 39.9258 90.7484 40.3734L89.9033 44.2738C89.8086 44.7239 89.7988 45.0508 89.8685 45.2449C89.9355 45.4222 90.1276 45.5487 90.4411 45.6211C90.7851 45.6972 91.3639 45.7391 92.1563 45.7412L94.2315 45.7466C94.4343 45.7458 94.5898 45.7131 94.6666 45.6506C94.722 45.6057 94.8006 45.4924 94.8587 45.2197C94.9167 44.9524 95.0257 44.7393 95.1856 44.5862C95.3518 44.4268 95.5671 44.3546 95.7922 44.3462C96.0164 44.3525 96.1835 44.4247 96.2889 44.5579C96.4229 44.7285 96.4497 44.9814 96.3729 45.3329C96.2371 45.966 95.9744 46.4456 95.5992 46.7564C95.2276 47.0617 94.7246 47.2186 94.1082 47.2209ZM91.8874 46.9833L94.0743 46.9871C94.6487 46.9985 95.115 46.8522 95.45 46.5767C95.7877 46.304 96.0218 45.8678 96.1477 45.2851C96.2067 45.0081 96.1924 44.8138 96.1066 44.6995C96.045 44.6213 95.9405 44.5815 95.7904 44.5794H95.7859C95.6135 44.5794 95.4697 44.6363 95.3473 44.7521C95.2213 44.8724 95.132 45.0468 95.0847 45.2691C95.0257 45.5442 94.9382 45.7254 94.814 45.828C94.6916 45.9331 94.4924 45.972 94.2315 45.9812L92.1563 45.9744C91.3318 45.9698 90.7583 45.9286 90.3893 45.8457C89.9962 45.7534 89.7488 45.5813 89.6523 45.3285C89.5612 45.0878 89.5719 44.7285 89.68 44.2259L90.5215 40.3225C90.6287 39.8381 90.769 39.4872 90.9521 39.2511C91.1406 39.0089 91.4282 38.8407 91.7972 38.7605C92.1554 38.6793 92.6932 38.638 93.4141 38.6441L95.7708 38.6509C96.0486 38.6509 96.2263 38.7072 96.3157 38.8239C96.4032 38.9388 96.4148 39.126 96.3523 39.4149C96.3058 39.631 96.3157 39.7947 96.3845 39.9074C96.4452 40.0088 96.556 40.0567 96.723 40.0615H96.7275C97.0982 40.0567 97.3305 39.8192 97.4386 39.3256C97.5637 38.7401 97.5235 38.3129 97.3171 38.0441C97.1099 37.7776 96.7141 37.6427 96.1477 37.6427L93.683 37.6313C92.7727 37.6291 92.0357 37.7182 91.4676 37.8956C90.9101 38.0662 90.4688 38.3503 90.1535 38.7296C89.8345 39.1223 89.6014 39.6591 89.4549 40.3386L88.5971 44.3007C88.4489 44.9836 88.456 45.5248 88.6163 45.9041C88.7717 46.2744 89.1054 46.5462 89.6067 46.7168C90.124 46.8889 90.8949 46.9787 91.8874 46.9833Z" fill="#F8FBFF"/>
<path d="M105.692 37.5566C106.199 37.5566 106.408 37.7637 106.316 38.181C106.229 38.5916 105.931 38.7986 105.423 38.797L103.222 38.7902L101.543 46.5522C101.498 46.7486 101.394 46.9126 101.228 47.0396C101.059 47.1683 100.864 47.2315 100.635 47.2315C100.407 47.227 100.246 47.1699 100.147 47.0503C100.049 46.933 100.025 46.7641 100.069 46.5484L101.751 38.788L99.5182 38.7775C99.2824 38.7775 99.1064 38.7204 98.9983 38.6067C98.8911 38.4926 98.8545 38.3426 98.8956 38.1552C98.9375 37.9696 99.0358 37.8187 99.1939 37.7051C99.3512 37.5918 99.5513 37.5355 99.7889 37.5376L105.692 37.5566Z" fill="#F8FBFF"/>
<path d="M100.64 47.345H100.634C100.371 47.345 100.178 47.2704 100.058 47.1241C99.9355 46.978 99.9025 46.7771 99.957 46.5265L101.605 38.9008L99.5175 38.8924C99.2477 38.8924 99.0476 38.8231 98.9153 38.6852C98.8189 38.5893 98.7206 38.4125 98.7805 38.1302C98.8305 37.917 98.9448 37.7395 99.1262 37.6108C99.3022 37.4823 99.5326 37.4255 99.789 37.4196L105.692 37.441C106.008 37.441 106.221 37.5147 106.343 37.6677C106.45 37.7988 106.478 37.9793 106.428 38.2025C106.361 38.5253 106.13 38.91 105.437 38.9123H105.425L103.313 38.9052L101.657 46.5784C101.605 46.8006 101.487 46.9885 101.296 47.1311C101.111 47.272 100.892 47.345 100.64 47.345ZM99.7774 37.6518C99.5666 37.6518 99.3986 37.7006 99.2602 37.7988C99.1262 37.8949 99.0413 38.0212 99.0083 38.1811C98.9761 38.3266 99.0011 38.4409 99.0788 38.5238C99.1673 38.6152 99.3156 38.663 99.5175 38.663L101.896 38.6691L100.183 46.5713C100.144 46.7557 100.162 46.8843 100.237 46.978C100.313 47.0679 100.447 47.1151 100.634 47.1151H100.639C100.842 47.1136 101.01 47.0589 101.155 46.9482C101.303 46.8364 101.391 46.6999 101.429 46.528L103.128 38.674L105.425 38.6807C105.865 38.6786 106.125 38.517 106.203 38.1553C106.236 38.0012 106.222 37.888 106.163 37.8132C106.086 37.7173 105.929 37.6725 105.691 37.6725L99.789 37.6518H99.7774Z" fill="#F8FBFF"/>
<path d="M108.243 42.388L107.481 45.907L113.399 45.9267C113.645 45.9267 113.826 45.9816 113.938 46.0896C114.047 46.2001 114.079 46.3629 114.032 46.5793C113.994 46.7674 113.896 46.9113 113.737 47.0155C113.581 47.1161 113.377 47.1685 113.13 47.1685L106.529 47.1489C106.335 47.1489 106.195 47.0811 106.115 46.9524C106.035 46.826 106.02 46.6401 106.073 46.4063L107.824 38.3018C107.875 38.0656 107.97 37.883 108.103 37.7557C108.243 37.6294 108.41 37.5638 108.603 37.566L115.205 37.586C115.455 37.586 115.632 37.6408 115.743 37.7519C115.856 37.8606 115.886 38.0246 115.839 38.2407C115.799 38.4288 115.7 38.5718 115.545 38.6751C115.387 38.7777 115.185 38.8301 114.936 38.8301L109.016 38.808L108.512 41.1457L112.525 41.1597C112.804 41.1597 113.006 41.2136 113.131 41.3248C113.259 41.4314 113.298 41.5959 113.25 41.8138C113.167 42.2075 112.833 42.4039 112.256 42.4018L108.243 42.388Z" fill="#F8FBFF"/>
<path d="M113.145 47.2831H113.13L106.529 47.2618C106.292 47.2618 106.12 47.1786 106.017 47.0142C105.917 46.8576 105.898 46.6502 105.957 46.3775L107.71 38.2768C107.766 38.0193 107.874 37.8161 108.025 37.6698C108.184 37.5236 108.375 37.4491 108.596 37.4491H108.603L115.206 37.4688C115.48 37.4703 115.69 37.5367 115.822 37.6674C115.964 37.8053 116.007 38.0058 115.953 38.2654C115.907 38.4792 115.789 38.6522 115.607 38.7695C115.432 38.886 115.2 38.9423 114.936 38.9445L109.109 38.9249L108.655 41.0288L112.525 41.0423C112.832 41.0447 113.061 41.1081 113.206 41.2342C113.369 41.3737 113.42 41.5749 113.366 41.8344C113.266 42.2885 112.886 42.5077 112.256 42.516L108.337 42.5008L107.624 45.7943L113.4 45.8094C113.682 45.8094 113.884 45.8751 114.019 46.0084C114.16 46.1463 114.203 46.3448 114.147 46.6014C114.098 46.8186 113.985 46.9882 113.801 47.1103C113.63 47.2243 113.41 47.2807 113.145 47.2831ZM108.598 37.6805C108.435 37.6805 108.3 37.7331 108.184 37.8404C108.067 37.9515 107.983 38.1131 107.938 38.3262L106.182 46.4301C106.14 46.6343 106.149 46.7903 106.214 46.89C106.271 46.9837 106.375 47.028 106.529 47.028L113.131 47.0516C113.358 47.054 113.536 47.0067 113.673 46.9168C113.805 46.8316 113.887 46.7088 113.92 46.5541C113.956 46.3775 113.935 46.2527 113.856 46.1742C113.768 46.0844 113.616 46.041 113.4 46.041L107.338 46.0221L108.148 42.2715L112.256 42.2844H112.275C112.784 42.2807 113.066 42.1193 113.138 41.7865C113.176 41.6143 113.148 41.4904 113.057 41.4087C112.95 41.3198 112.771 41.2732 112.525 41.2732L108.367 41.2587L108.924 38.6941L114.936 38.7107C115.161 38.7061 115.341 38.6681 115.478 38.5776C115.61 38.4908 115.69 38.3726 115.727 38.2151C115.763 38.0383 115.743 37.9121 115.66 37.8335C115.573 37.7467 115.419 37.7027 115.204 37.7027L108.603 37.6805H108.598Z" fill="#F8FBFF"/>
<path d="M115.897 46.5684L117.706 38.2157C117.809 37.7338 118.078 37.4915 118.512 37.4915C118.945 37.4961 119.107 37.752 118.997 38.2666L117.523 45.0662L124.49 37.8829C124.738 37.6377 124.989 37.5128 125.237 37.515C125.651 37.5182 125.804 37.7586 125.696 38.2421L123.891 46.5969C123.787 47.0696 123.52 47.3043 123.085 47.3043C122.653 47.3043 122.484 47.0789 122.58 46.6357L124.07 39.7463L117.179 46.8702C117.02 47.0369 116.887 47.1512 116.782 47.203C116.678 47.2555 116.541 47.2821 116.376 47.2821C115.954 47.2821 115.792 47.0414 115.897 46.5684ZM120.822 37.8562C120.211 37.8562 119.816 37.7053 119.63 37.4093C119.446 37.1117 119.432 36.6027 119.589 35.8855L119.725 35.2481L121.028 35.2527L120.839 36.1253C120.793 36.3411 120.789 36.4786 120.831 36.5314C120.87 36.5863 120.996 36.6142 121.216 36.6166L122.795 36.6187C123 36.6187 123.135 36.5968 123.201 36.5396C123.261 36.4856 123.319 36.3501 123.366 36.1337L123.554 35.2625L124.857 35.265L124.718 35.9023C124.56 36.6312 124.326 37.1396 124.017 37.4306C123.703 37.7215 123.244 37.8648 122.632 37.8625L120.822 37.8562Z" fill="#F8FBFF"/>
<path d="M123.097 47.4205H123.089C122.839 47.4205 122.657 47.3519 122.549 47.2166C122.438 47.0794 122.41 46.8747 122.465 46.6117L123.871 40.12L117.264 46.9505C117.094 47.1289 116.953 47.2455 116.835 47.3064C116.717 47.3648 116.569 47.3986 116.393 47.3986H116.375C116.144 47.3986 115.971 47.3306 115.866 47.2021C115.748 47.0536 115.72 46.8334 115.782 46.5448L117.592 38.1933C117.736 37.5249 118.163 37.38 118.501 37.3785H118.511C118.745 37.3785 118.918 37.4457 119.024 37.582C119.149 37.7389 119.179 37.9703 119.11 38.2892L117.723 44.696L124.406 37.8042C124.675 37.5377 124.952 37.403 125.228 37.4006H125.236C125.46 37.4006 125.624 37.4661 125.73 37.5949C125.848 37.7434 125.876 37.9682 125.813 38.2688L124.003 46.6233C123.892 47.1403 123.577 47.4151 123.097 47.4205ZM124.269 39.3737L122.693 46.6628C122.65 46.8502 122.665 46.9879 122.731 47.0732C122.791 47.1495 122.913 47.1881 123.086 47.1881H123.097C123.467 47.1881 123.685 46.9879 123.776 46.5706L125.585 38.2193C125.635 37.9915 125.622 37.8302 125.547 37.7404C125.493 37.6664 125.385 37.6323 125.236 37.6323H125.23C125.018 37.6338 124.794 37.7449 124.572 37.9658L117.325 45.4377L118.883 38.2406C118.934 37.9961 118.922 37.8233 118.843 37.7266C118.781 37.649 118.67 37.6102 118.511 37.6102C118.139 37.6161 117.911 37.811 117.818 38.2406L116.008 46.5972C115.96 46.8104 115.974 46.9675 116.045 47.0558C116.107 47.1289 116.218 47.1648 116.375 47.1648C116.532 47.1624 116.642 47.145 116.729 47.0992C116.792 47.0666 116.909 46.9879 117.095 46.7915L124.269 39.3737ZM122.671 37.9795H122.634L120.822 37.9703C120.171 37.9703 119.738 37.802 119.534 37.4707C119.328 37.1447 119.312 36.6163 119.476 35.8593L119.633 35.1321L121.172 35.1366L120.951 36.1495C120.899 36.3987 120.922 36.4618 120.924 36.4654C120.924 36.4654 120.983 36.4983 121.215 36.4983L122.794 36.5059H122.809C123.047 36.5028 123.111 36.464 123.123 36.4558C123.133 36.4421 123.192 36.3831 123.251 36.1101L123.459 35.1458L124.998 35.1528L124.83 35.9241C124.671 36.6734 124.423 37.2104 124.092 37.5156C123.769 37.8197 123.292 37.9772 122.671 37.9795ZM119.82 35.3659L119.704 35.9095C119.553 36.5974 119.563 37.0794 119.729 37.3467C119.888 37.6077 120.257 37.7389 120.822 37.7404L122.634 37.7448C123.202 37.7389 123.647 37.6146 123.936 37.3467C124.228 37.0749 124.453 36.5807 124.603 35.8769L124.712 35.3811L123.647 35.3773L123.477 36.1603C123.427 36.407 123.36 36.5569 123.275 36.6279C123.191 36.7016 123.034 36.733 122.793 36.7375L121.215 36.7307C120.943 36.7307 120.799 36.6932 120.734 36.5989C120.671 36.5166 120.67 36.3658 120.725 36.1017L120.885 35.3683L119.82 35.3659Z" fill="#F8FBFF"/>
</svg>
