<svg width="97" height="70" viewBox="0 0 97 70" fill="none" xmlns="http://www.w3.org/2000/svg">
<path d="M33.3554 17.3798C33.6962 17.0019 34.105 16.7959 34.6502 16.7615V20.8144C34.1391 20.7802 33.6962 20.5741 33.3554 20.1963C33.0147 19.8184 32.8444 19.3376 32.8444 18.788C32.8444 18.2385 33.0147 17.7919 33.3554 17.3798ZM36.524 16.7615V20.8144C37.0351 20.7802 37.478 20.5741 37.8187 20.1963C38.1595 19.8184 38.3298 19.3376 38.3298 18.788C38.3298 18.2385 38.1595 17.7575 37.8187 17.3798C37.4441 17.0019 37.0351 16.7959 36.524 16.7615ZM62.0432 35.4121H59.7263V36.7174H62.0432C62.2476 36.7174 62.4179 36.6486 62.5543 36.5457C62.6905 36.4082 62.7586 36.2709 62.7586 36.0647C62.7586 35.8929 62.6905 35.7212 62.5543 35.6183C62.4179 35.5152 62.2476 35.4121 62.0432 35.4121ZM41.8051 32.5956C41.2259 32.5956 40.783 32.8018 40.4081 33.1795C40.0334 33.5574 39.8631 34.0382 39.8631 34.6221C39.8631 35.2062 40.0334 35.687 40.4081 36.0647C40.783 36.4426 41.2599 36.6486 41.8051 36.6486C42.3162 36.6486 42.759 36.4426 43.0997 36.0647C43.4404 35.687 43.6449 35.2062 43.6449 34.6221C43.6449 34.0382 43.4746 33.5574 43.0997 33.1795C42.759 32.8018 42.3162 32.5956 41.8051 32.5956ZM32.5036 32.5956C31.9586 32.5956 31.5156 32.8018 31.1409 33.1795C30.7661 33.5574 30.5957 34.0382 30.5957 34.6221C30.5957 35.2062 30.7661 35.687 31.1409 36.0647C31.5156 36.4426 31.9586 36.6486 32.5036 36.6486C33.0489 36.6486 33.4918 36.4426 33.8665 36.0647C34.2414 35.687 34.4117 35.2062 34.4117 34.6221C34.4117 34.0382 34.2414 33.5574 33.8665 33.1795C33.4918 32.8018 33.0489 32.5956 32.5036 32.5956ZM54.6157 20.8489C55.1609 20.8489 55.6037 20.6427 55.9786 20.265C56.3534 19.8871 56.5238 19.4063 56.5238 18.8224C56.5238 18.2385 56.3534 17.7575 55.9786 17.3798C55.6037 17.0019 55.1609 16.7959 54.6157 16.7959C54.0707 16.7959 53.6277 17.0019 53.2528 17.3798C52.8781 17.7575 52.7078 18.2385 52.7078 18.8224C52.7078 19.4063 52.8781 19.8871 53.2528 20.265C53.6277 20.6427 54.0707 20.8489 54.6157 20.8489ZM97 4.4651V65.5349C97 68.0077 95.024 70 92.5708 70H35.9448C33.4918 70 31.5156 68.0077 31.5156 65.5349V53.8566C31.5156 52.5171 30.4595 51.4524 29.1306 51.4524H4.42917C1.97602 51.4524 0 49.4602 0 46.9871V4.4651C0 1.99205 1.97602 0 4.42917 0H92.5708C95.024 0 97 1.99205 97 4.4651ZM78.3633 12.056C78.3633 12.7772 78.5676 13.3611 79.0105 13.7732C79.4194 14.1855 79.9985 14.3915 80.68 14.3915C81.3614 14.3915 81.9406 14.1855 82.3494 13.7732C82.7583 13.3611 82.9969 12.7772 82.9969 12.056H81.4976C81.4976 12.743 81.2252 13.0864 80.68 13.0864C80.1349 13.0864 79.8963 12.743 79.8963 12.056H78.3633ZM77.0685 22.4288H80.4757L82.4175 15.5937V22.4288H84.1892V15.1816H80.7822L78.8402 22.0853V15.1816H77.0685V22.4288ZM67.8011 18.788C67.8011 19.8528 68.176 20.7458 68.8914 21.4672C69.6409 22.1884 70.561 22.5663 71.6513 22.5663C72.7416 22.5663 73.6615 22.1884 74.411 21.4672C75.1606 20.7458 75.5013 19.8528 75.5013 18.788C75.5013 17.7233 75.1264 16.8301 74.411 16.1089C73.6615 15.3876 72.7416 15.0098 71.6513 15.0098C70.561 15.0098 69.6409 15.3876 68.8914 16.1089C68.176 16.8301 67.8011 17.7233 67.8011 18.788ZM60.0331 22.4288H64.2238C64.9392 22.4288 65.5525 22.257 65.9955 21.9136C66.4384 21.5701 66.6769 21.1237 66.6769 20.574C66.6769 20.0932 66.5065 19.6811 66.1998 19.3719C65.8932 19.0628 65.4502 18.8566 64.871 18.788C65.3482 18.6507 65.7229 18.4445 65.9613 18.1354C66.2339 17.8264 66.3362 17.4829 66.3362 17.0363C66.3362 16.4867 66.0977 16.0403 65.6547 15.6968C65.2118 15.3533 64.5984 15.1816 63.883 15.1816H60.0331V22.4288ZM62.7586 34.6221C63.2357 34.4848 63.6104 34.2786 63.8489 33.9695C64.1215 33.6605 64.2238 33.317 64.2238 32.8704C64.2238 32.321 63.9853 31.8744 63.5423 31.5309C63.0993 31.1874 62.4862 31.0157 61.7706 31.0157H57.9206V38.2973H62.1113C62.8269 38.2973 63.4401 38.1256 63.883 37.7821C64.326 37.4386 64.5645 36.9921 64.5645 36.4426C64.5645 35.9618 64.3941 35.5495 64.0875 35.2404C63.7808 34.8627 63.3378 34.6909 62.7586 34.6221ZM50.7657 18.788C50.7657 19.8528 51.1406 20.7458 51.856 21.4672C52.6055 22.1884 53.5254 22.5663 54.6157 22.5663C55.706 22.5663 56.6259 22.1884 57.3754 21.4672C58.125 20.7458 58.4657 19.8528 58.4657 18.788C58.4657 17.7233 58.091 16.8301 57.3754 16.1089C56.6259 15.3876 55.706 15.0098 54.6157 15.0098C53.5254 15.0098 52.6055 15.3876 51.856 16.1089C51.1064 16.8301 50.7657 17.7233 50.7657 18.788ZM54.2069 31.0157V38.2973H56.0808V31.0157H54.2069ZM17.8533 31.0157H10.9708V38.2973H12.8447V32.6645H15.9793V38.2629H17.8533V31.0157ZM18.6368 22.4288V24.6959H20.6469V20.6427H19.4886V12.5712H17.4784V20.6427H12.9811V12.5712H10.9708V22.4288H18.6368ZM27.393 34.6221C27.393 33.5574 27.0865 32.6645 26.5073 31.9431C25.9281 31.2219 25.1783 30.844 24.2926 30.844C23.6453 30.844 23.1001 31.0501 22.6571 31.4278C22.1802 31.84 21.8736 32.3552 21.6351 33.0422V30.947H19.7612V41.0452H21.6351V36.1335C21.8394 36.8203 22.1802 37.37 22.6571 37.7479C23.1342 38.16 23.6793 38.3317 24.2926 38.3317C25.1783 38.3317 25.9281 37.9538 26.5073 37.2326C27.0865 36.6143 27.393 35.687 27.393 34.6221ZM27.5292 15.5937V22.4288H29.3009V15.1816H25.8939L23.9519 22.0853V15.1816H22.1462V22.4632H25.5532L27.5292 15.5937ZM36.3536 34.6221C36.3536 33.5574 35.9789 32.6645 35.2633 31.9431C34.5138 31.2219 33.5939 30.844 32.5036 30.844C31.4134 30.844 30.4935 31.2219 29.7439 31.9431C28.9944 32.6645 28.6537 33.5574 28.6537 34.6221C28.6537 35.687 29.0285 36.5799 29.7439 37.3013C30.4935 38.0225 31.4134 38.4004 32.5036 38.4004C33.5939 38.4004 34.5138 38.0225 35.2633 37.3013C36.0131 36.6143 36.3536 35.687 36.3536 34.6221ZM36.524 22.5663C37.5803 22.5319 38.5002 22.1542 39.2156 21.4328C39.9312 20.7116 40.2719 19.8184 40.2719 18.788C40.2719 17.7233 39.9312 16.8646 39.2156 16.1432C38.5002 15.422 37.6142 15.0441 36.524 15.0098V12.0216H34.6502V15.0441C33.5939 15.0785 32.674 15.4564 31.9586 16.1776C31.243 16.899 30.9023 17.7919 30.9023 18.8224C30.9023 19.8871 31.243 20.7458 31.9586 21.4672C32.674 22.1884 33.5599 22.5663 34.6502 22.6005V25.2797H36.524V22.5663ZM45.587 34.6221C45.587 33.5574 45.2802 32.6645 44.7011 31.9431C44.1219 31.2219 43.3723 30.844 42.4866 30.844C41.8391 30.844 41.294 31.0501 40.8511 31.4278C40.3741 31.84 40.0674 32.3552 39.8289 33.0422V30.947H37.955V41.0452H39.8289V36.1335C40.0334 36.8203 40.3741 37.37 40.8511 37.7479C41.328 38.16 41.8732 38.3317 42.4866 38.3317C43.3723 38.3317 44.1219 37.9538 44.7011 37.2326C45.2802 36.6143 45.587 35.687 45.587 34.6221ZM46.3705 22.5663C47.2565 22.5663 48.006 22.1884 48.5852 21.4672C49.1644 20.7458 49.4709 19.8528 49.4709 18.788C49.4709 17.7233 49.1644 16.8301 48.5852 16.1089C48.006 15.3876 47.2565 15.0098 46.3705 15.0098C45.7232 15.0098 45.1782 15.2158 44.7352 15.5937C44.2581 16.0059 43.9515 16.5211 43.713 17.2081V15.1129H41.8391V25.2109H43.713V20.3681C43.9176 21.055 44.2581 21.6045 44.7352 21.9824C45.2121 22.3946 45.7574 22.5663 46.3705 22.5663ZM50.7657 38.2629C51.6175 38.2629 52.2989 38.0225 52.81 37.5417C53.3211 37.0609 53.5935 36.4426 53.5935 35.6525C53.5935 34.8627 53.3211 34.2444 52.81 33.7636C52.2989 33.2826 51.6175 33.0422 50.7657 33.0422H49.0621V30.9813H47.1883V38.2629H50.7657ZM87.3238 42.1099L84.2575 34.8627H82.5539L79.4875 42.1099H81.3614L82.4175 39.5338V48.8763H52.0944V50.9372H84.4619V39.6368L85.484 42.1099H87.3238ZM71.6513 20.8489C72.1963 20.8489 72.6393 20.6427 73.014 20.265C73.3888 19.8871 73.5592 19.4063 73.5592 18.8224C73.5592 18.2385 73.3888 17.7575 73.014 17.3798C72.6393 17.0019 72.1963 16.7959 71.6513 16.7959C71.1061 16.7959 70.6631 17.0019 70.2884 17.3798C69.9136 17.7575 69.7432 18.2385 69.7432 18.8224C69.7432 19.4063 69.9136 19.8871 70.2884 20.265C70.6631 20.6427 71.1061 20.8489 71.6513 20.8489ZM23.6112 32.5956C23.032 32.5956 22.589 32.8018 22.2143 33.1795C21.8394 33.5574 21.6691 34.0382 21.6691 34.6221C21.6691 35.2062 21.8394 35.687 22.2143 36.0647C22.589 36.4426 23.0661 36.6486 23.6112 36.6486C24.1222 36.6486 24.5652 36.4426 24.9059 36.0647C25.2466 35.687 25.451 35.2062 25.451 34.6221C25.451 34.0382 25.2806 33.5574 24.9059 33.1795C24.5311 32.8018 24.1222 32.5956 23.6112 32.5956ZM64.2919 17.8606C64.4281 17.7233 64.4964 17.5858 64.4964 17.3798C64.4964 17.2081 64.4281 17.0363 64.2919 16.9332C64.1557 16.8301 63.9853 16.7615 63.7808 16.7615H61.8048V18.0668H63.7808C63.9853 18.0323 64.1557 17.9637 64.2919 17.8606ZM45.6891 16.7615C45.1099 16.7615 44.6671 16.9677 44.2922 17.3454C43.9175 17.7233 43.7472 18.2041 43.7472 18.788C43.7472 19.3719 43.9175 19.8528 44.2922 20.2306C44.6671 20.6085 45.144 20.8144 45.6891 20.8144C46.2001 20.8144 46.6431 20.6085 46.9838 20.2306C47.3246 19.8528 47.5291 19.3719 47.5291 18.788C47.5291 18.2041 47.3587 17.7233 46.9838 17.3454C46.609 16.9677 46.2001 16.7615 45.6891 16.7615ZM62.2136 33.6605C62.3498 33.523 62.4179 33.3857 62.4179 33.1795C62.4179 33.0078 62.3498 32.836 62.2136 32.7331C62.0772 32.63 61.907 32.5614 61.7025 32.5614H59.7263V33.8665H61.7025C61.907 33.8665 62.0772 33.7978 62.2136 33.6605ZM50.5272 34.7252H49.0621V36.5799H50.5612C50.9019 36.5799 51.1745 36.477 51.379 36.3053C51.5834 36.1335 51.6856 35.8929 51.6856 35.6525C51.6856 35.4121 51.5834 35.1717 51.379 35C51.1406 34.8283 50.868 34.7252 50.5272 34.7252ZM64.8371 20.1963C64.8371 20.0246 64.7688 19.8528 64.6326 19.7498C64.4964 19.6467 64.326 19.578 64.1215 19.578H61.8048V20.8833H64.1215C64.326 20.8833 64.4964 20.8145 64.6326 20.7116C64.7688 20.5741 64.8371 20.4023 64.8371 20.1963Z" fill="#1940FF"/>
</svg>
