<svg width="98" height="70" viewBox="0 0 98 70" fill="none" xmlns="http://www.w3.org/2000/svg">
<path d="M11.0547 22.487V12.634H13.0804V20.7019H17.6464V12.634H19.672V20.7019H20.8392V24.753H18.8137V22.487H11.0547Z" fill="#F8FBFF"/>
<path d="M24.135 22.1094L26.0919 15.2431H29.5249V22.5214H27.7397V15.6551L25.7829 22.487H22.3497V15.2431H24.135V22.1094Z" fill="#F8FBFF"/>
<path d="M39.5154 16.2045C40.2365 16.9254 40.5798 17.8181 40.5798 18.8479C40.5798 19.9122 40.2365 20.7706 39.5154 21.4914C38.7946 22.2125 37.9018 22.59 36.8032 22.6244V25.3022H34.9151V22.6244C33.8508 22.59 32.9238 22.2125 32.203 21.4914C31.4819 20.7706 31.1386 19.8778 31.1386 18.8479C31.1386 17.7837 31.4819 16.9254 32.203 16.2045C32.9238 15.4834 33.8165 15.1059 34.9151 15.0715V12.0504H36.8032V15.0715C37.9018 15.1059 38.7946 15.4834 39.5154 16.2045ZM33.0955 18.8479C33.0955 19.3973 33.2672 19.8778 33.6105 20.2556C33.9538 20.6331 34.3658 20.8392 34.9151 20.8736V16.8223C34.4002 16.8567 33.9538 17.0628 33.6105 17.4403C33.2672 17.8523 33.0955 18.2987 33.0955 18.8479ZM36.8032 16.8223V20.8736C37.3182 20.8392 37.7646 20.6331 38.1079 20.2556C38.4512 19.8778 38.6229 19.3973 38.6229 18.8479C38.6229 18.2987 38.4512 17.8181 38.1079 17.4403C37.7646 17.0628 37.3182 16.8567 36.8032 16.8223Z" fill="#F8FBFF"/>
<path d="M46.7593 15.0715C47.6518 15.0715 48.4071 15.4492 48.9909 16.1701C49.5745 16.8911 49.8834 17.7837 49.8834 18.8478C49.8834 19.9122 49.5745 20.8048 48.9909 21.5258C48.4071 22.2467 47.6518 22.6244 46.7593 22.6244C46.1071 22.6244 45.5577 22.4183 45.1113 22.0408C44.6307 21.6289 44.3218 21.1139 44.0815 20.4272V25.3366H42.1932V15.2431H44.0815V17.3373C44.2874 16.6506 44.6307 16.1014 45.1113 15.7237C45.5577 15.2775 46.1071 15.0715 46.7593 15.0715ZM46.0727 20.9078C46.5876 20.9078 47.034 20.7019 47.3773 20.3242C47.7206 19.9464 47.9265 19.4659 47.9265 18.8823C47.9265 18.2986 47.7549 17.8181 47.3773 17.4403C46.9996 17.0628 46.5876 16.8567 46.0727 16.8567C45.489 16.8567 45.0427 17.0628 44.6651 17.4403C44.2874 17.8181 44.1157 18.2986 44.1157 18.8823C44.1157 19.4659 44.2874 19.9464 44.6651 20.3242C45.0085 20.7019 45.489 20.9078 46.0727 20.9078Z" fill="#F8FBFF"/>
<path d="M52.2523 21.56C51.497 20.8392 51.1537 19.9465 51.1537 18.8823C51.1537 17.8181 51.5314 16.9254 52.2523 16.2045C53.0075 15.4834 53.9345 15.1059 55.0331 15.1059C56.1317 15.1059 57.0586 15.4834 57.8139 16.2045C58.5692 16.9254 58.9125 17.8181 58.9125 18.8823C58.9125 19.9465 58.5349 20.8392 57.8139 21.56C57.0586 22.2811 56.1317 22.6586 55.0331 22.6586C53.9345 22.6586 53.0075 22.2811 52.2523 21.56ZM53.1106 18.8479C53.1106 19.4317 53.2822 19.9122 53.6598 20.2898C54.0375 20.6675 54.4839 20.8736 55.0331 20.8736C55.5825 20.8736 56.0286 20.6675 56.4064 20.2898C56.7841 19.9122 56.9558 19.4317 56.9558 18.8479C56.9558 18.2643 56.7841 17.7837 56.4064 17.4059C56.0286 17.0284 55.5825 16.8223 55.0331 16.8223C54.4839 16.8223 54.0375 17.0284 53.6598 17.4059C53.3166 17.8181 53.1106 18.2987 53.1106 18.8479Z" fill="#F8FBFF"/>
<path d="M65.3668 18.8479C65.9504 18.9167 66.3968 19.1225 66.7057 19.4316C67.0148 19.7406 67.1865 20.1525 67.1865 20.6331C67.1865 21.1825 66.9462 21.6289 66.4998 21.9722C66.0535 22.3155 65.4699 22.487 64.7146 22.487H60.4919V15.2431H64.3713C65.0921 15.2431 65.7102 15.4148 66.1565 15.7581C66.6029 16.1014 66.8432 16.5478 66.8432 17.097C66.8432 17.509 66.7057 17.8867 66.4654 18.1956C66.1909 18.5047 65.8476 18.7106 65.3668 18.8479ZM64.2682 16.7881H62.2771V18.0926H64.2682C64.4743 18.0926 64.646 18.0239 64.7832 17.9209C64.9205 17.7837 64.9893 17.6464 64.9893 17.4403C64.9893 17.2687 64.9205 17.097 64.7832 16.994C64.646 16.8911 64.5085 16.7881 64.2682 16.7881ZM62.3113 20.9422H64.646C64.8518 20.9422 65.0235 20.8736 65.161 20.7705C65.2982 20.6331 65.3668 20.4958 65.3668 20.2898C65.3668 20.1181 65.2982 19.9464 65.161 19.8436C65.0235 19.7406 64.8518 19.6719 64.646 19.6719H62.3113V20.9422Z" fill="#F8FBFF"/>
<path d="M69.4525 21.56C68.6972 20.8392 68.3539 19.9465 68.3539 18.8823C68.3539 17.8181 68.7317 16.9254 69.4525 16.2045C70.2078 15.4834 71.1347 15.1059 72.2333 15.1059C73.3319 15.1059 74.2589 15.4834 75.0141 16.2045C75.7694 16.9254 76.1127 17.8181 76.1127 18.8823C76.1127 19.9465 75.7352 20.8392 75.0141 21.56C74.2589 22.2811 73.3319 22.6586 72.2333 22.6586C71.1005 22.6244 70.1734 22.2811 69.4525 21.56ZM70.3108 18.8479C70.3108 19.4317 70.4825 19.9122 70.86 20.2898C71.2378 20.6675 71.6841 20.8736 72.2333 20.8736C72.7827 20.8736 73.2289 20.6675 73.6066 20.2898C73.9842 19.9122 74.1558 19.4317 74.1558 18.8479C74.1558 18.2643 73.9842 17.7837 73.6066 17.4059C73.2289 17.0284 72.7827 16.8223 72.2333 16.8223C71.6841 16.8223 71.2378 17.0284 70.86 17.4059C70.4825 17.8181 70.3108 18.2987 70.3108 18.8479Z" fill="#F8FBFF"/>
<path d="M79.4773 22.1094L81.4342 15.2087H84.8673V22.487H83.082V15.6551L81.1251 22.487H77.6921V15.2432H79.4773V22.1094ZM81.2968 14.4535C80.6101 14.4535 80.0609 14.2476 79.6146 13.8356C79.2026 13.4237 78.9623 12.8399 78.9623 12.119H80.4729C80.4729 12.8057 80.7476 13.149 81.2626 13.149C81.8118 13.149 82.0865 12.8057 82.0865 12.119H83.597C83.597 12.8399 83.391 13.4237 82.9448 13.8356C82.5328 14.2476 81.9834 14.4535 81.2968 14.4535Z" fill="#F8FBFF"/>
<path d="M11.0888 38.3139V31.0356H18.0582V38.3139H16.1699V32.7179H13.0113V38.3139H11.0888Z" fill="#F8FBFF"/>
<path d="M24.4784 30.8982C25.3709 30.8982 26.1264 31.2759 26.71 31.9968C27.2936 32.7178 27.6025 33.6104 27.6025 34.6748C27.6025 35.739 27.2936 36.6315 26.71 37.3525C26.1264 38.0734 25.3709 38.4511 24.4784 38.4511C23.8262 38.4511 23.2768 38.2451 22.8304 37.8675C22.3498 37.4556 22.0409 36.9406 21.8006 36.2539V41.1633H19.9124V31.0356H21.8006V33.1298C22.0065 32.4432 22.3498 31.8938 22.8304 31.5162C23.2768 31.1043 23.8262 30.8982 24.4784 30.8982ZM23.7918 36.7345C24.3067 36.7345 24.7531 36.5286 25.0964 36.1509C25.4398 35.7734 25.6456 35.2926 25.6456 34.709C25.6456 34.1254 25.474 33.6448 25.0964 33.2671C24.7531 32.8895 24.3067 32.6834 23.7918 32.6834C23.2081 32.6834 22.7618 32.8895 22.3842 33.2671C22.0065 33.6448 21.8349 34.1254 21.8349 34.709C21.8349 35.2926 22.0065 35.7734 22.3842 36.1509C22.7276 36.5286 23.2081 36.7345 23.7918 36.7345Z" fill="#F8FBFF"/>
<path d="M30.0055 37.387C29.2503 36.6659 28.907 35.7734 28.907 34.709C28.907 33.6448 29.2845 32.7521 30.0055 32.0312C30.7608 31.3102 31.6878 30.9326 32.7864 30.9326C33.885 30.9326 34.8119 31.3102 35.5672 32.0312C36.3224 32.7521 36.6658 33.6448 36.6658 34.709C36.6658 35.7734 36.2882 36.6659 35.5672 37.387C34.8119 38.1078 33.885 38.4856 32.7864 38.4856C31.6878 38.4856 30.7264 38.1078 30.0055 37.387ZM30.8639 34.6748C30.8639 35.2584 31.0355 35.739 31.4131 36.1167C31.7908 36.4942 32.237 36.7003 32.7864 36.7003C33.3356 36.7003 33.7819 36.4942 34.1597 36.1167C34.5372 35.739 34.7089 35.2584 34.7089 34.6748C34.7089 34.091 34.5372 33.6104 34.1597 33.2328C33.7819 32.8551 33.3356 32.6492 32.7864 32.6492C32.237 32.6492 31.7908 32.8551 31.4131 33.2328C31.0355 33.6448 30.8639 34.1254 30.8639 34.6748Z" fill="#F8FBFF"/>
<path d="M42.8111 30.8982C43.7037 30.8982 44.4589 31.2759 45.0425 31.9968C45.6262 32.7178 45.9353 33.6104 45.9353 34.6748C45.9353 35.739 45.6262 36.6315 45.0425 37.3525C44.4589 38.0734 43.7037 38.4511 42.8111 38.4511C42.1587 38.4511 41.6095 38.2451 41.1631 37.8675C40.6826 37.4556 40.3734 36.9406 40.1332 36.2539V41.1633H38.2449V31.0356H40.1332V33.1298C40.3392 32.4432 40.6826 31.8938 41.1631 31.5162C41.6437 31.1043 42.1931 30.8982 42.8111 30.8982ZM42.1245 36.7345C42.6395 36.7345 43.0856 36.5286 43.429 36.1509C43.7723 35.7734 43.9783 35.2926 43.9783 34.709C43.9783 34.1254 43.8067 33.6448 43.429 33.2671C43.0856 32.8895 42.6395 32.6834 42.1245 32.6834C41.5409 32.6834 41.0945 32.8895 40.7168 33.2671C40.3392 33.6448 40.1676 34.1254 40.1676 34.709C40.1676 35.2926 40.3392 35.7734 40.7168 36.1509C41.0945 36.5286 41.5409 36.7345 42.1245 36.7345Z" fill="#F8FBFF"/>
<path d="M51.1539 38.3139H47.5147V31.0356H49.403V33.0954H51.1195C51.9778 33.0954 52.6644 33.3357 53.1794 33.8165C53.6944 34.297 53.9691 34.9151 53.9691 35.7046C53.9691 36.4942 53.6944 37.1123 53.1794 37.5928C52.733 38.0734 52.0466 38.3139 51.1539 38.3139ZM49.4372 34.7776V36.6315H50.9478C51.2911 36.6315 51.5658 36.5286 51.7719 36.357C51.9778 36.1853 52.0808 35.945 52.0808 35.7046C52.0808 35.4643 51.9778 35.224 51.7719 35.0523C51.5658 34.8806 51.2911 34.7776 50.9478 34.7776H49.4372ZM56.5438 38.3139H54.6557V31.0356H56.5438V38.3139Z" fill="#F8FBFF"/>
<path d="M63.2728 34.6404C63.8564 34.709 64.3028 34.9151 64.6117 35.224C64.9206 35.5329 65.0923 35.945 65.0923 36.4256C65.0923 36.9748 64.852 37.4212 64.4058 37.7645C63.9595 38.1078 63.3759 38.2795 62.6206 38.2795H58.3979V31.0356H62.2773C62.9981 31.0356 63.6162 31.2073 64.0625 31.5504C64.5087 31.8938 64.7492 32.3401 64.7492 32.8895C64.7492 33.3015 64.6117 33.679 64.3714 33.9881C64.0967 34.3314 63.7192 34.5373 63.2728 34.6404ZM62.1742 32.6148H60.1829V33.9195H62.1742C62.3803 33.9195 62.5518 33.8507 62.6892 33.7478C62.8265 33.6104 62.8951 33.4731 62.8951 33.2671C62.8951 33.0954 62.8265 32.9237 62.6892 32.8207C62.5862 32.6835 62.4145 32.6148 62.1742 32.6148ZM60.2173 36.7345H62.5518C62.7578 36.7345 62.9295 36.6659 63.0668 36.5629C63.2042 36.4256 63.2728 36.2884 63.2728 36.0823C63.2728 35.9106 63.2042 35.739 63.0668 35.6359C62.9295 35.5329 62.7578 35.4643 62.5518 35.4643H60.2173V36.7345Z" fill="#F8FBFF"/>
<path d="M93.2785 69.9674H36.2196C33.7479 69.9674 31.7565 67.9761 31.7565 65.5044V53.8316C31.7565 52.4927 30.6923 51.4285 29.3533 51.4285H4.46302C1.99113 51.4285 0 49.4372 0 46.9653V4.46302C0 1.99113 1.99113 0 4.46302 0H93.2785C95.7504 0 97.7415 1.99113 97.7415 4.46302V65.5044C97.7415 67.9761 95.7504 69.9674 93.2785 69.9674ZM4.46302 2.05994C3.12414 2.05994 2.05994 3.12413 2.05994 4.46302V46.9653C2.05994 48.3043 3.12414 49.3685 4.46302 49.3685H29.3533C31.8252 49.3685 33.8165 51.3598 33.8165 53.8316V65.5044C33.8165 66.8433 34.8807 67.9075 36.2196 67.9075H93.2785C94.6174 67.9075 95.6816 66.8433 95.6816 65.5044V4.46302C95.6816 3.12413 94.6174 2.05994 93.2785 2.05994H4.46302Z" fill="#F8FBFF"/>
<path d="M82.0177 42.1589H80.1295L83.2192 34.9151H84.9358L88.0257 42.1589H86.1718L84.0775 37.1809L82.0177 42.1589Z" fill="#F8FBFF"/>
<path d="M85.1419 50.9821H52.527V48.9222H83.0819V37.1465H85.1419V50.9821Z" fill="#F8FBFF"/>
</svg>
