<svg width="194" height="65" viewBox="0 0 194 65" fill="none" xmlns="http://www.w3.org/2000/svg">
<path d="M92.4245 28.008V12H88.4645L84.0965 22.536L79.7525 12H75.7925V28.008H78.6005V16.128L83.4965 28.008H84.6965L89.6165 16.128V28.008H92.4245Z" fill="#F8FBFF"/>
<path d="M105.36 28.008V20.328C105.36 17.208 103.104 16.128 100.536 16.128C98.6876 16.128 97.0075 16.728 95.6635 18L96.6956 19.752C97.7036 18.768 98.8316 18.288 100.128 18.288C101.736 18.288 102.84 19.104 102.84 20.448V22.176C102 21.192 100.656 20.688 99.0956 20.688C97.1996 20.688 95.0636 21.792 95.0636 24.456C95.0636 27.024 97.1996 28.296 99.0956 28.296C100.632 28.296 101.976 27.744 102.84 26.76V28.008H105.36ZM100.08 26.568C98.6635 26.568 97.6075 25.752 97.6075 24.504C97.6075 23.232 98.6635 22.416 100.08 22.416C101.184 22.416 102.264 22.824 102.84 23.616V25.368C102.264 26.16 101.184 26.568 100.08 26.568Z" fill="#F8FBFF"/>
<path d="M121.827 16.416V25.8H117.747V16.416H115.227V25.8H111.147V16.416H108.627V28.008H124.347V16.416H121.827Z" fill="#F8FBFF"/>
<path d="M130.035 28.008L135.459 19.992V28.008H137.979V16.416H135.459L130.131 24.216V16.416H127.611V28.008H130.035Z" fill="#F8FBFF"/>
<path d="M143.772 28.008V23.184H149.1V28.008H151.62V16.416H149.1V20.976H143.772V16.416H141.252V28.008H143.772Z" fill="#F8FBFF"/>
<path d="M157.412 28.008V23.184H162.74V28.008H165.26V16.416H162.74V20.976H157.412V16.416H154.892V28.008H157.412Z" fill="#F8FBFF"/>
<path d="M173.765 28.296C177.485 28.296 179.741 25.536 179.741 22.2C179.741 18.888 177.485 16.128 173.765 16.128C170.093 16.128 167.813 18.888 167.813 22.2C167.813 25.536 170.093 28.296 173.765 28.296ZM173.765 26.064C171.629 26.064 170.429 24.264 170.429 22.2C170.429 20.16 171.629 18.36 173.765 18.36C175.925 18.36 177.125 20.16 177.125 22.2C177.125 24.264 175.925 26.064 173.765 26.064Z" fill="#F8FBFF"/>
<path d="M187.643 28.296C189.491 28.296 191.195 27.72 192.347 26.616L191.195 24.96C190.379 25.776 189.035 26.232 187.907 26.232C185.723 26.232 184.403 24.792 184.211 23.04H193.163V22.44C193.163 18.792 190.931 16.128 187.451 16.128C184.019 16.128 181.571 18.84 181.571 22.2C181.571 25.872 184.163 28.296 187.643 28.296ZM190.715 21.264H184.187C184.307 19.848 185.291 18.192 187.451 18.192C189.731 18.192 190.667 19.896 190.715 21.264Z" fill="#F8FBFF"/>
<path d="M80.9525 54.296C84.6725 54.296 86.9285 51.536 86.9285 48.2C86.9285 44.888 84.6725 42.128 80.9525 42.128C77.2805 42.128 75.0005 44.888 75.0005 48.2C75.0005 51.536 77.2805 54.296 80.9525 54.296ZM80.9525 52.064C78.8165 52.064 77.6165 50.264 77.6165 48.2C77.6165 46.16 78.8165 44.36 80.9525 44.36C83.1125 44.36 84.3125 46.16 84.3125 48.2C84.3125 50.264 83.1125 52.064 80.9525 52.064Z" fill="#F8FBFF"/>
<path d="M94.7103 52.064C92.5743 52.064 91.3743 50.264 91.3743 48.152C91.3743 46.16 92.5743 44.36 94.7103 44.36C96.8703 44.36 98.0703 46.16 98.0703 48.152C98.0703 50.264 96.8703 52.064 94.7103 52.064ZM94.7103 54.296C98.4783 54.296 100.662 51.44 100.662 48.176C100.662 44.96 98.4783 42.128 95.1903 42.128C93.5103 42.128 91.9503 42.896 91.0143 44.168C91.3263 42.752 92.5263 41.384 95.3103 41.072C97.2303 40.856 100.254 40.256 100.254 38H97.7823C97.7823 38.432 97.0863 38.72 94.6143 39.08C90.7263 39.56 88.7823 42.032 88.7823 47.672C88.7823 51.44 90.9663 54.296 94.7103 54.296Z" fill="#F8FBFF"/>
<path d="M102.826 58.544C103.186 58.64 103.882 58.712 104.242 58.712C106.042 58.688 107.434 58.064 108.226 56.096L113.818 42.416H111.106L107.722 51.104L104.338 42.416H101.65L106.402 54.152L105.826 55.472C105.49 56.24 104.962 56.48 104.17 56.48C103.882 56.48 103.474 56.408 103.21 56.288L102.826 58.544Z" fill="#F8FBFF"/>
<path d="M114.992 42.416V46.448C114.992 48.824 116.216 50.12 119.48 50.12C120.872 50.12 122.048 49.88 122.816 49.496V54.008H125.336V42.416H122.816V47.456C122.216 47.72 121.376 47.888 120.272 47.888C118.424 47.888 117.512 47.336 117.512 45.536V42.416H114.992Z" fill="#F8FBFF"/>
<path d="M133.947 54.296C135.795 54.296 137.499 53.72 138.651 52.616L137.499 50.96C136.683 51.776 135.339 52.232 134.211 52.232C132.027 52.232 130.707 50.792 130.515 49.04H139.467V48.44C139.467 44.792 137.235 42.128 133.755 42.128C130.323 42.128 127.875 44.84 127.875 48.2C127.875 51.872 130.467 54.296 133.947 54.296ZM137.019 47.264H130.491C130.611 45.848 131.595 44.192 133.755 44.192C136.035 44.192 136.971 45.896 137.019 47.264Z" fill="#F8FBFF"/>
<path d="M144.475 54.008V49.184H149.803V54.008H152.323V42.416H149.803V46.976H144.475V42.416H141.955V54.008H144.475Z" fill="#F8FBFF"/>
<path d="M158.019 54.008L163.443 45.992V54.008H165.963V42.416H163.443L158.115 50.216V42.416H155.595V54.008H158.019Z" fill="#F8FBFF"/>
<path d="M174.588 54.296C176.436 54.296 178.14 53.72 179.292 52.616L178.14 50.96C177.324 51.776 175.98 52.232 174.852 52.232C172.668 52.232 171.348 50.792 171.156 49.04H180.108V48.44C180.108 44.792 177.876 42.128 174.396 42.128C170.964 42.128 168.516 44.84 168.516 48.2C168.516 51.872 171.108 54.296 174.588 54.296ZM177.66 47.264H171.132C171.252 45.848 172.236 44.192 174.396 44.192C176.676 44.192 177.612 45.896 177.66 47.264Z" fill="#F8FBFF"/>
<path d="M27.4609 64.9999L54.9995 55.3969V31.1911H27.4609V64.9999Z" fill="#365FF6"/>
<path fill-rule="evenodd" clip-rule="evenodd" d="M48.115 45.1586L41.2304 38.1746L34.3457 45.1586H48.115Z" fill="#2848BA"/>
<path fill-rule="evenodd" clip-rule="evenodd" d="M54.9999 45.1586V38.1746L48.1152 45.1586H54.9999Z" fill="#2848BA"/>
<path fill-rule="evenodd" clip-rule="evenodd" d="M34.3454 45.1586L27.4607 38.1746L20.6543 45.1586H34.3454Z" fill="#2848BA"/>
<path d="M55.0005 0L41.2312 5.79352L27.4619 0V31.1898H55.0005V0Z" fill="#73CA86"/>
<path d="M27.4604 0L13.7693 5.79352L0 0V31.1898H27.4604V0Z" fill="#365FF6"/>
<path fill-rule="evenodd" clip-rule="evenodd" d="M27.4604 31.1896L13.7693 17.2217L0 31.1896H27.4604Z" fill="#2848BA"/>
<path fill-rule="evenodd" clip-rule="evenodd" d="M41.2302 38.1751L34.3456 31.1911L27.4609 38.1751H41.2302Z" fill="#2848BA"/>
<path fill-rule="evenodd" clip-rule="evenodd" d="M54.9978 38.1751L48.1132 31.1911L41.2285 38.1751H54.9978Z" fill="#2848BA"/>
<path fill-rule="evenodd" clip-rule="evenodd" d="M41.2304 52.1406L34.3457 59.1245H44.438L47.1762 58.1722L41.2304 52.1406Z" fill="#2848BA"/>
<path fill-rule="evenodd" clip-rule="evenodd" d="M49.9922 57.1404L54.9992 55.3945V52.1406L49.9922 57.1404Z" fill="#2848BA"/>
<path fill-rule="evenodd" clip-rule="evenodd" d="M34.3435 59.1245L27.4589 52.1406L20.5742 59.1245H34.3435Z" fill="#2848BA"/>
<path fill-rule="evenodd" clip-rule="evenodd" d="M41.2302 52.141L34.3456 45.157L27.4609 52.141H41.2302Z" fill="#2848BA"/>
<path fill-rule="evenodd" clip-rule="evenodd" d="M54.9978 52.141L48.1132 45.157L41.2285 52.141H54.9978Z" fill="#2848BA"/>
<path d="M27.4604 64.9999L0 55.3969V31.1911H27.4604V64.9999Z" fill="#73CA86"/>
<path fill-rule="evenodd" clip-rule="evenodd" d="M21.825 51.5056V48.4897H20.0257V51.5056H17.0527V53.3309H21.825V51.5056Z" fill="#F8FBFF"/>
<path fill-rule="evenodd" clip-rule="evenodd" d="M7.50838 48.4897H5.70898V53.3309H7.50838H10.4813V51.5056H7.50838V48.4897Z" fill="#F8FBFF"/>
<path fill-rule="evenodd" clip-rule="evenodd" d="M20.0248 43.0146H21.8242V38.1735H20.0248H17.0519V39.9988H20.0248V43.0146Z" fill="#F8FBFF"/>
<path fill-rule="evenodd" clip-rule="evenodd" d="M5.70898 43.0154H7.50838V39.9995H10.4813V38.1742H5.70898V39.9995V43.0154Z" fill="#F8FBFF"/>
<path fill-rule="evenodd" clip-rule="evenodd" d="M36.3027 25.4753L46.1603 25.396L41.2315 20.4754L36.3027 25.4753Z" fill="#F8FBFF"/>
<path fill-rule="evenodd" clip-rule="evenodd" d="M32.9355 10.7933V12.0631C32.9355 16.6662 36.6126 20.3169 41.2284 20.3169C45.766 20.3169 49.5213 16.5868 49.5213 12.0631V10.7933H32.9355Z" fill="#F8FBFF"/>
</svg>
